<?xml version="1.0" encoding="UTF-8" standalone="no"?>
<!-- Created with Inkscape (http://www.inkscape.org/) -->

<svg
   xmlns:dc="http://purl.org/dc/elements/1.1/"
   xmlns:cc="http://creativecommons.org/ns#"
   xmlns:rdf="http://www.w3.org/1999/02/22-rdf-syntax-ns#"
   xmlns:svg="http://www.w3.org/2000/svg"
   xmlns="http://www.w3.org/2000/svg"
   xmlns:sodipodi="http://sodipodi.sourceforge.net/DTD/sodipodi-0.dtd"
   xmlns:inkscape="http://www.inkscape.org/namespaces/inkscape"
   width="200mm"
   height="200mm"
   viewBox="0 0 200 200"
   version="1.1"
   id="svg8"
   inkscape:version="0.92.2 (5c3e80d, 2017-08-06)"
   sodipodi:docname="idb_hooked.svg">
  <defs
     id="defs2">
    <inkscape:path-effect
       effect="envelope"
       id="path-effect937"
       is_visible="true"
       yy="true"
       xx="false"
       bendpath1="m 60.650297,200.30623 c 26.956698,5.6498 53.315413,6.5186 78.699423,0"
       bendpath2="m 139.34972,200.30623 v 16.73033"
       bendpath3="m 60.650297,217.03656 c 26.967134,5.7761 53.676543,5.94796 78.699423,0"
       bendpath4="m 60.650297,200.30623 v 16.73033"
       bendpath1-nodetypes="cc"
       bendpath3-nodetypes="cc" />
    <inkscape:path-effect
       effect="envelope"
       id="path-effect904"
       is_visible="true"
       yy="true"
       xx="false"
       bendpath1="m 69.948024,175.92818 c 17.92958,4.20444 38.236106,2.7142 61.906726,0"
       bendpath2="m 131.85475,175.92818 v 8.84623"
       bendpath3="m 69.948024,184.77441 c 24.815575,5.01455 43.817676,3.57396 61.906726,0"
       bendpath4="m 69.948024,175.92818 v 8.84623"
       bendpath1-nodetypes="cc"
       bendpath3-nodetypes="cc" />
    <inkscape:path-effect
       effect="envelope"
       id="path-effect865"
       is_visible="true"
       yy="true"
       xx="true"
       bendpath1="m 113.34487,177.83417 h 14.34796 14.34796 28.69592"
       bendpath2="m 170.73671,177.83417 v 8.20103"
       bendpath3="m 113.34487,186.0352 h 57.39184"
       bendpath4="m 113.34487,177.83417 v 8.20103"
       bendpath1-nodetypes="cccc" />
    <inkscape:path-effect
       effect="envelope"
       id="path-effect4908"
       is_visible="true"
       yy="true"
       xx="true"
       bendpath1="M 56.619047,225.31875 H 153.38095"
       bendpath2="m 153.38095,225.31875 v 15.87501"
       bendpath3="M 56.619047,241.19376 H 153.38095"
       bendpath4="m 56.619047,225.31875 v 15.87501" />
    <inkscape:path-effect
       effect="envelope"
       id="path-effect4891"
       is_visible="true"
       yy="true"
       xx="true"
       bendpath1="m 74.225206,234.68161 c 0,0 21.755729,6.06038 31.341764,6.06038 9.58603,0 30.01883,-5.84616 30.01883,-5.84616"
       bendpath2="m 133.69592,245.30292 v 8.20103"
       bendpath3="m 76.682051,269.80765 12.930551,-4.20846 16.143348,0.94494 15.2929,-0.85045 13.781,1.69481"
       bendpath4="m 76.304075,245.30292 v 8.20103"
       bendpath1-nodetypes="csc"
       bendpath3-nodetypes="ccccc" />
    <inkscape:path-effect
       effect="envelope"
       id="path-effect4866"
       is_visible="true"
       yy="true"
       xx="true"
       bendpath1="m 63.452008,238.31877 h 3.105394"
       bendpath2="m 66.557402,238.31877 v 11.19834"
       bendpath3="m 63.452008,249.51711 h 3.105394"
       bendpath4="m 63.452008,238.31877 v 11.19834" />
    <inkscape:path-effect
       effect="bspline"
       id="path-effect4731"
       is_visible="true"
       weight="33.333333"
       steps="2"
       helper_size="0"
       apply_no_weight="true"
       apply_with_weight="true"
       only_selected="false" />
    <inkscape:path-effect
       effect="bspline"
       id="path-effect4727"
       is_visible="true"
       weight="33.333333"
       steps="2"
       helper_size="0"
       apply_no_weight="true"
       apply_with_weight="true"
       only_selected="false" />
  </defs>
  <sodipodi:namedview
     id="base"
     pagecolor="#ffffff"
     bordercolor="#666666"
     borderopacity="1.0"
     inkscape:pageopacity="0.0"
     inkscape:pageshadow="2"
     inkscape:zoom="0.7"
     inkscape:cx="377.76205"
     inkscape:cy="419.30562"
     inkscape:document-units="mm"
     inkscape:current-layer="layer1"
     showgrid="false"
     inkscape:snap-bbox="true"
     inkscape:bbox-paths="true"
     inkscape:bbox-nodes="true"
     inkscape:lockguides="true"
     inkscape:window-width="1920"
     inkscape:window-height="1017"
     inkscape:window-x="-8"
     inkscape:window-y="-8"
     inkscape:window-maximized="1"
     inkscape:measure-start="0,0"
     inkscape:measure-end="0,0"
     showguides="false" />
  <metadata
     id="metadata5">
    <rdf:RDF>
      <cc:Work
         rdf:about="">
        <dc:format>image/svg+xml</dc:format>
        <dc:type
           rdf:resource="http://purl.org/dc/dcmitype/StillImage" />
        <dc:title></dc:title>
      </cc:Work>
    </rdf:RDF>
  </metadata>
  <g
     inkscape:groupmode="layer"
     id="layer3"
     inkscape:label="Vrstva 3"
     style="display:inline"
     transform="translate(0,-97)"
     sodipodi:insensitive="true">
           <animateTransform attributeType="xml" attributeName="transform" type="rotate" from="0 100 197" to="359 100 197" dur="20s" additive="sum" repeatCount="indefinite" />

    <g
       id="g5868"
       transform="translate(7.36e-6,-2.1e-5)">
      <path
         id="path1971"
         d="M 100,97.299602 A 71.549718,99.700416 0 0 1 171.54972,197.00002 71.549718,99.700416 0 0 1 100,296.70044 71.549718,99.700416 0 0 1 28.450283,197.00002 71.549718,99.700416 0 0 1 100,97.299602 Z"
         style="display:inline;opacity:1;fill:none;fill-opacity:1;stroke:#ffb6b6;stroke-width:0.99900001;stroke-linecap:round;stroke-linejoin:round;stroke-miterlimit:4;stroke-dasharray:none;stroke-dashoffset:0;stroke-opacity:1;paint-order:fill markers stroke"
         inkscape:connector-curvature="0" />
      <path
         id="path1971-5-5-1"
         d="M 29.501156,126.50118 A 99.700416,71.549718 45 0 1 150.59329,146.40674 99.700416,71.549718 45 0 1 170.49884,267.49887 99.700416,71.549718 45 0 1 49.406705,247.59332 99.700416,71.549718 45 0 1 29.501156,126.50118 Z"
         style="display:inline;opacity:1;fill:none;fill-opacity:1;stroke:#ffb6b6;stroke-width:0.99900001;stroke-linecap:round;stroke-linejoin:round;stroke-miterlimit:4;stroke-dasharray:none;stroke-dashoffset:0;stroke-opacity:1;paint-order:fill markers stroke"
         inkscape:connector-curvature="0" />
      <path
         id="path1971-8"
         d="M 29.501156,267.49887 A 71.549718,99.700416 45 0 1 49.406707,146.40674 71.549718,99.700416 45 0 1 170.49884,126.50118 71.549718,99.700416 45 0 1 150.59329,247.59332 71.549718,99.700416 45 0 1 29.501156,267.49887 Z"
         style="display:inline;opacity:1;fill:none;fill-opacity:1;stroke:#ffb6b6;stroke-width:0.99900001;stroke-linecap:round;stroke-linejoin:round;stroke-miterlimit:4;stroke-dasharray:none;stroke-dashoffset:0;stroke-opacity:1;paint-order:fill markers stroke"
         inkscape:connector-curvature="0" />
      <path
         id="path1971-87"
         d="M 0.29957528,197.00003 A 99.700416,71.549718 0 0 1 99.999993,125.45031 99.700416,71.549718 0 0 1 199.70041,197.00003 99.700416,71.549718 0 0 1 99.999993,268.54975 99.700416,71.549718 0 0 1 0.29957528,197.00003 Z"
         style="display:inline;opacity:1;fill:none;fill-opacity:1;stroke:#ffb6b6;stroke-width:0.99900001;stroke-linecap:round;stroke-linejoin:round;stroke-miterlimit:4;stroke-dasharray:none;stroke-dashoffset:0;stroke-opacity:1;paint-order:fill markers stroke"
         inkscape:connector-curvature="0" />
    </g>
  </g>
  <g
     inkscape:label="Vrstva 1"
     inkscape:groupmode="layer"
     id="layer1"
     style="display:inline"
     transform="translate(0,-97)">
    <path
       id="path4568"
       style="opacity:1;fill:#dea5a5;fill-opacity:0.09415584;stroke:#020202;stroke-width:1.5;stroke-linecap:round;stroke-linejoin:round;stroke-miterlimit:4;stroke-dasharray:none;stroke-dashoffset:0;stroke-opacity:1;paint-order:fill markers stroke"
       d="m 48.57087,153.898 a 51.48509,17.300779 0 0 0 51.45701,16.72943 51.48509,17.300779 0 0 0 51.45706,-16.73013 M 99.999794,137.16702 A 51.48509,17.300779 0 0 0 48.599862,153.8973 h -0.08524 v 0.5705 85.06442 a 51.48509,17.300779 0 0 0 51.485176,17.30077 51.48509,17.300779 0 0 0 51.485132,-17.30077 v -85.06442 -0.5705 h -0.0605 A 51.48509,17.300779 0 0 0 99.999794,137.16702 Z"
       inkscape:connector-curvature="0" />
    <path
       inkscape:connector-curvature="0"
       style="opacity:1;fill:#f69aa5;fill-opacity:0;stroke:#020202;stroke-width:1.5;stroke-linecap:round;stroke-linejoin:round;stroke-miterlimit:4;stroke-dasharray:none;stroke-dashoffset:0;stroke-opacity:1;paint-order:fill markers stroke"
       d="m 151.48842,214.00152 v 0 A 51.488673,16.894721 0 0 1 99.999748,230.89624 51.488673,16.894721 0 0 1 48.51107,214.00152"
       id="path4572-6" />
    <path
       inkscape:connector-curvature="0"
       style="opacity:1;fill:#f69aa5;fill-opacity:0;stroke:#020202;stroke-width:1.5;stroke-linecap:round;stroke-linejoin:round;stroke-miterlimit:4;stroke-dasharray:none;stroke-dashoffset:0;stroke-opacity:1;paint-order:fill markers stroke"
       d="m 151.48842,180.62237 v 0 A 51.488673,16.894721 0 0 1 99.999748,197.5171 51.488673,16.894721 0 0 1 48.511065,180.62237"
       id="path4572-1" />
    <path
       style="font-style:normal;font-weight:normal;font-size:10.58333302px;line-height:1.25;font-family:sans-serif;letter-spacing:0px;word-spacing:0px;fill:#000000;fill-opacity:1;stroke:none;stroke-width:0.22121739;stroke-miterlimit:4;stroke-dasharray:none;stroke-opacity:1"
       d="m 85.996342,178.14025 c 0.03054,0.89589 0.05541,1.79245 0.07461,2.68968 -0.282214,-0.1666 -0.550577,-0.29385 -0.804871,-0.38175 -0.254458,-0.0915 -0.545105,-0.15188 -0.872179,-0.18166 -0.360485,-0.0328 -0.70819,0.008 -1.043567,0.12119 -0.331683,0.11397 -0.621569,0.29673 -0.870181,0.54912 -0.252223,0.25936 -0.452138,0.58402 -0.600133,0.9751 -0.144285,0.39152 -0.2143,0.84822 -0.210477,1.37139 0.0073,1.00553 0.22714,1.81958 0.662595,2.43932 0.438931,0.61985 1.028496,0.97317 1.772195,1.05207 0.383038,0.0406 0.738766,0.005 1.067124,-0.10788 0.328317,-0.11247 0.644155,-0.28513 0.946903,-0.51792 -7.69e-4,0.21754 -0.0019,0.43511 -0.0033,0.65273 0.35008,0.0324 0.700258,0.0636 1.050527,0.0936 0.02208,-2.90086 -0.01934,-5.79554 -0.124263,-8.68403 -0.348486,-0.0222 -0.696816,-0.0458 -1.044982,-0.0709 z m 27.456278,-0.48496 c 0.0164,0.9677 0.0318,1.9338 0.0462,2.89829 -0.28119,-0.13235 -0.549,-0.22434 -0.80329,-0.27589 -0.25438,-0.0554 -0.54539,-0.0707 -0.87312,-0.0457 -0.36128,0.0275 -0.70986,0.13296 -1.04571,0.31621 -0.33214,0.183 -0.6217,0.43359 -0.86922,0.75204 -0.25106,0.32666 -0.44888,0.71428 -0.59436,1.1634 -0.14172,0.44884 -0.20884,0.9538 -0.20227,1.51535 0.0126,1.07933 0.23491,1.91028 0.6741,2.49315 0.44264,0.5823 1.03698,0.85118 1.78324,0.80025 0.3842,-0.0262 0.73987,-0.129 1.06652,-0.30783 0.32665,-0.17887 0.63924,-0.41913 0.93754,-0.72069 0.003,0.23161 0.005,0.46313 0.007,0.69455 0.35016,-0.0283 0.70023,-0.0577 1.05019,-0.0883 -0.0392,-3.07744 -0.0796,-6.17255 -0.12136,-9.28531 -0.35193,0.0307 -0.70387,0.0609 -1.05584,0.0905 z m -43.578946,-1.54682 c -0.0083,0.2807 -0.0157,0.56159 -0.02231,0.84265 0.356353,0.0822 0.712956,0.1623 1.069799,0.24036 -0.04104,2.18411 -0.03982,4.37867 0.0037,6.58368 -0.359336,-0.0712 -0.718469,-0.14378 -1.077392,-0.2178 0.0063,0.28386 0.01338,0.56788 0.02131,0.85209 1.079737,0.21984 2.161566,0.42757 3.245258,0.62327 -0.0052,-0.28158 -0.0099,-0.56301 -0.01418,-0.84428 -0.360117,-0.0655 -0.72005,-0.13246 -1.079788,-0.20078 -0.03825,-2.19827 -0.04197,-4.38651 -0.01116,-6.56473 0.357324,0.0739 0.714882,0.14582 1.072664,0.21574 0.0027,-0.27882 0.0059,-0.55748 0.0095,-0.83597 -1.074844,-0.21234 -2.147374,-0.44341 -3.217378,-0.69423 z m 46.798806,1.66297 c 0.0179,2.97701 0.0532,5.93594 0.10604,8.87679 0.69903,-0.0703 1.39759,-0.14517 2.09562,-0.22446 0.76071,-0.0864 1.37224,-0.21641 1.83189,-0.38379 0.46386,-0.16811 0.88055,-0.4007 1.25038,-0.69643 0.53322,-0.4272 0.95148,-0.98517 1.26102,-1.67245 0.31309,-0.68752 0.4645,-1.42763 0.4588,-2.22148 -0.006,-0.84902 -0.1597,-1.56517 -0.46913,-2.15041 -0.30951,-0.58538 -0.74166,-1.03557 -1.30259,-1.35108 -0.32835,-0.18219 -0.73215,-0.30982 -1.21202,-0.38312 -0.47627,-0.0777 -1.12114,-0.0753 -1.93551,0.005 -0.69459,0.0688 -1.38944,0.13593 -2.0845,0.20103 z m 8.84085,-0.91757 c -0.0995,2.91669 -0.0835,5.80719 0.048,8.67148 0.97459,-0.15122 1.94775,-0.31111 2.91932,-0.47962 0.5702,-0.0989 1.03623,-0.2361 1.39659,-0.40717 0.36445,-0.172 0.69238,-0.40939 0.98559,-0.71071 0.24803,-0.25182 0.43991,-0.54869 0.57844,-0.89068 0.13857,-0.34205 0.20043,-0.71746 0.18912,-1.1284 -0.0158,-0.57378 -0.17823,-1.02241 -0.49607,-1.35003 -0.31769,-0.33121 -0.74913,-0.51644 -1.30009,-0.55346 1.2e-4,-0.0151 2.4e-4,-0.0303 3.7e-4,-0.0454 0.33025,-0.21789 0.59603,-0.48036 0.79925,-0.78683 0.20332,-0.31028 0.3116,-0.66405 0.32707,-1.06309 0.0137,-0.35402 -0.0393,-0.64859 -0.16243,-0.88501 -0.12287,-0.24006 -0.33026,-0.42378 -0.62431,-0.55142 -0.26552,-0.11211 -0.54722,-0.17422 -0.84525,-0.18536 -0.2979,-0.0111 -0.74979,0.018 -1.35547,0.0873 -0.81937,0.0938 -1.63946,0.18671 -2.46016,0.27842 z m 1.07015,0.86256 c 0.43666,-0.0519 0.87308,-0.10419 1.30925,-0.15692 0.36594,-0.0442 0.67206,-0.0681 0.91836,-0.0716 0.24647,-0.007 0.45412,0.03 0.62306,0.11145 0.14381,0.0694 0.24584,0.17026 0.30664,0.3026 0.0608,0.1324 0.0875,0.30097 0.0811,0.50612 -0.008,0.24689 -0.0497,0.46616 -0.12703,0.65844 -0.0732,0.18787 -0.19669,0.35087 -0.37032,0.48896 -0.17364,0.13805 -0.36105,0.24051 -0.56276,0.30683 -0.20154,0.0625 -0.47289,0.11763 -0.8135,0.16456 -0.46899,0.0646 -0.93838,0.12825 -1.40816,0.19085 0.004,-0.83149 0.0181,-1.66526 0.0434,-2.50131 z m -8.79832,0.96804 c 0.34618,-0.0339 0.69226,-0.0683 1.03825,-0.10324 0.5135,-0.0518 0.954,-0.0574 1.32167,-0.0167 0.3677,0.0369 0.71418,0.13698 1.03957,0.29968 0.44748,0.2248 0.78186,0.56067 1.00631,1.00827 0.22447,0.44758 0.33705,1.01468 0.34254,1.70234 0.005,0.6836 -0.0888,1.26499 -0.28669,1.74597 -0.19423,0.48038 -0.4918,0.88606 -0.89513,1.21595 -0.32337,0.26477 -0.68181,0.46273 -1.07567,0.59281 -0.39001,0.12967 -0.85011,0.2252 -1.37966,0.28465 -0.34446,0.0387 -0.68906,0.0763 -1.0338,0.11296 -0.0424,-2.26955 -0.0682,-4.55045 -0.0774,-6.84271 z m -39.799719,0.82621 c -0.366248,-0.0535 -0.722602,-0.0325 -1.06945,0.0635 -0.346823,0.096 -0.682622,0.25069 -1.007276,0.46468 -8.24e-4,-0.22729 -0.0015,-0.45449 -0.0022,-0.68159 -0.347317,-0.0574 -0.694475,-0.11645 -1.041466,-0.1772 -1.15e-4,2.04733 0.01389,4.10253 0.04201,6.16561 0.347121,0.0583 0.69442,0.11545 1.04189,0.17135 -0.01701,-1.53864 -0.0292,-3.07311 -0.03658,-4.6034 0.284303,-0.16974 0.58175,-0.29971 0.892207,-0.39033 0.310466,-0.0906 0.608316,-0.11487 0.89371,-0.0725 0.278032,0.0413 0.504438,0.11249 0.679439,0.2143 0.174936,0.0982 0.30949,0.23056 0.403618,0.39756 0.09028,0.1518 0.153246,0.35472 0.188747,0.60893 0.03547,0.25054 0.05433,0.51721 0.05647,0.80008 0.0088,1.1682 0.01573,2.33846 0.02067,3.51077 0.348414,0.0487 0.696975,0.0961 1.045677,0.14234 -0.0029,-1.33697 -0.01025,-2.67144 -0.02193,-4.00341 -0.0066,-0.75343 -0.189688,-1.35178 -0.54626,-1.79813 -0.35674,-0.44656 -0.869677,-0.7148 -1.539307,-0.81262 0,0 -6e-6,-1e-5 -6e-6,-1e-5 z m 13.785786,1.21868 c -0.909888,-0.0324 -1.634584,0.23602 -2.180307,0.80848 -0.542334,0.57303 -0.805327,1.36613 -0.796985,2.39094 0.0084,1.03524 0.297497,1.857 0.876752,2.46291 0.578567,0.60143 1.385058,0.93841 2.422725,0.99462 0.406938,0.022 0.795902,-0.009 1.166748,-0.0947 0.37083,-0.0852 0.734469,-0.19706 1.090638,-0.3356 0.0033,-0.38969 0.0051,-0.77937 0.0055,-1.16904 -0.01869,-6.5e-4 -0.03738,-0.001 -0.05607,-0.002 -0.183077,0.1607 -0.491999,0.32069 -0.925902,0.4766 -0.430287,0.15232 -0.858527,0.21701 -1.284192,0.19507 -0.321134,-0.0165 -0.615878,-0.0781 -0.884236,-0.18376 -0.264652,-0.10539 -0.493709,-0.25461 -0.68743,-0.44674 -0.20121,-0.19633 -0.359654,-0.44086 -0.475958,-0.73322 -0.116334,-0.29613 -0.175577,-0.6372 -0.178614,-1.02346 1.536199,0.0917 3.073056,0.15939 4.609961,0.20419 -0.0017,-0.19397 -0.0037,-0.38793 -0.006,-0.58189 -0.01125,-0.92441 -0.257437,-1.6427 -0.728973,-2.15473 -0.468429,-0.51264 -1.124975,-0.77759 -1.967696,-0.80764 0,0 4.3e-5,-5e-5 4.3e-5,-5e-5 z m 13.480243,-0.0943 c -0.91096,0.0414 -1.63634,0.38513 -2.18101,1.03187 -0.54114,0.64687 -0.80121,1.4996 -0.79016,2.56707 0.0112,1.07844 0.30158,1.90726 0.88302,2.48579 0.58075,0.57394 1.39004,0.85236 2.42891,0.82013 0.40729,-0.0126 0.79609,-0.0791 1.16605,-0.19948 0.36995,-0.12035 0.73219,-0.26741 1.08651,-0.44122 -4.8e-4,-0.40352 -0.002,-0.80723 -0.004,-1.21113 -0.0187,9e-4 -0.0373,0.002 -0.056,0.003 -0.1815,0.18194 -0.48854,0.37383 -0.92058,0.57251 -0.42847,0.19467 -0.85581,0.29867 -1.2813,0.31271 -0.32098,0.0106 -0.61592,-0.0277 -0.88466,-0.1141 -0.26503,-0.0864 -0.49461,-0.22148 -0.68896,-0.4043 -0.20182,-0.18654 -0.36098,-0.42697 -0.47808,-0.72108 -0.11714,-0.29801 -0.17727,-0.648 -0.18136,-1.05032 1.53484,-0.039 3.06855,-0.0986 4.60053,-0.17776 -0.002,-0.20127 -0.005,-0.4026 -0.007,-0.60397 -0.0128,-0.95967 -0.25628,-1.68833 -0.72589,-2.18505 -0.46642,-0.49748 -1.12201,-0.72264 -1.9656,-0.68429 0,0 4e-5,-6e-5 4e-5,-6e-5 z m -9.921821,0.35546 c 0.841467,1.08313 1.661302,2.15365 2.482141,3.24105 -0.80563,1.06681 -1.616684,2.11108 -2.444744,3.14899 0.40915,0.0134 0.818345,0.0253 1.227573,0.0356 0.605572,-0.80719 1.201983,-1.61886 1.79409,-2.44196 0.597985,0.83191 1.184977,1.65781 1.771811,2.4912 0.44296,0.001 0.88592,4.4e-4 1.32887,-0.002 -0.81659,-1.10194 -1.627237,-2.18474 -2.462776,-3.28481 0.810758,-1.06381 1.604136,-2.13383 2.394976,-3.22682 -0.41061,0.01 -0.82125,0.0186 -1.23188,0.0257 -0.566837,0.82936 -1.13679,1.64725 -1.715549,2.46065 -0.601387,-0.81538 -1.204398,-1.62379 -1.817702,-2.43659 -0.442305,-0.002 -0.88458,-0.005 -1.32681,-0.0109 z m -3.591183,0.61315 c 0.559659,0.0217 0.979344,0.18755 1.258574,0.50303 0.282698,0.31528 0.431441,0.75357 0.442727,1.31478 -1.194909,-0.0397 -2.389696,-0.0935 -3.584075,-0.16202 0.03855,-0.4924 0.219761,-0.89572 0.545123,-1.21335 0.329026,-0.31737 0.774267,-0.46433 1.337651,-0.44244 z m 13.479654,-0.0517 c 0.55946,-0.024 0.97856,0.11513 1.25712,0.42144 0.28206,0.30587 0.43013,0.75062 0.4422,1.33382 -1.19181,0.0568 -2.38456,0.10205 -3.57798,0.13506 0.0373,-0.51714 0.21732,-0.95438 0.542,-1.31437 0.32836,-0.36008 0.77344,-0.55178 1.33666,-0.57595 z m -20.627493,-0.31557 c 0.264262,0.0242 0.508487,0.0698 0.732754,0.13714 0.224239,0.0673 0.479067,0.17566 0.764377,0.32468 0.02058,1.18886 0.03122,2.37891 0.03191,3.57014 -0.264599,0.18455 -0.549935,0.32907 -0.855625,0.43331 -0.305702,0.10056 -0.607534,0.13536 -0.905431,0.1048 -0.558495,-0.0573 -0.964043,-0.29269 -1.21781,-0.70106 -0.253973,-0.41236 -0.382309,-0.98593 -0.387795,-1.72012 -0.0056,-0.7454 0.151457,-1.30187 0.473575,-1.67369 0.322041,-0.37173 0.775995,-0.52902 1.364051,-0.47516 -10e-7,-1e-5 -10e-7,-3e-5 -10e-7,-4e-5 z m 27.428073,0.01 c 0.26403,-0.0201 0.50791,-0.0131 0.73171,0.0209 0.22381,0.0341 0.47784,0.10728 0.76202,0.21936 0.0182,1.27597 0.0346,2.54911 0.0493,3.81942 -0.26118,0.24339 -0.5436,0.44811 -0.84721,0.61388 -0.30363,0.16182 -0.60453,0.25315 -0.90235,0.27418 -0.55844,0.0394 -0.96583,-0.13832 -1.22203,-0.52936 -0.25642,-0.39528 -0.38774,-0.98652 -0.39719,-1.77464 -0.01,-0.80017 0.14418,-1.42908 0.46437,-1.88841 0.3202,-0.45933 0.77368,-0.71063 1.36137,-0.75531 0,0 0,-4e-5 0,-4e-5 z m 14.52203,-0.0599 c 0.56993,-0.0791 1.13926,-0.16006 1.70798,-0.2427 0.35843,-0.0521 0.66176,-0.0816 0.91029,-0.0882 0.25215,-0.0111 0.46596,0.0174 0.64167,0.0849 0.25996,0.10004 0.44003,0.24123 0.54121,0.42445 0.10126,0.1833 0.15496,0.44287 0.16403,0.77951 0.008,0.29546 -0.0309,0.5442 -0.11865,0.74743 -0.0878,0.20312 -0.23036,0.39547 -0.42856,0.57704 -0.18769,0.16839 -0.43216,0.30556 -0.73373,0.41033 -0.30146,0.1009 -0.69136,0.19206 -1.16812,0.27074 -0.48072,0.0793 -0.96185,0.15676 -1.44338,0.23225 -0.0423,-1.06147 -0.0665,-2.12672 -0.0727,-3.19574 z"
       id="text897"
       inkscape:path-effect="#path-effect904"
       inkscape:original-d="m 86.258039,175.92819 v 2.69791 c -0.278703,-0.14494 -0.544411,-0.25085 -0.797097,-0.31773 -0.2527,-0.0705 -0.542556,-0.10596 -0.869566,-0.10596 -0.360467,0 -0.70978,0.0743 -1.047942,0.22295 -0.334449,0.14866 -0.628019,0.3642 -0.880716,0.64662 -0.256411,0.28986 -0.460794,0.64103 -0.613155,1.05352 -0.148642,0.41248 -0.222973,0.88257 -0.222973,1.41027 0,1.0145 0.217397,1.80789 0.652183,2.38017 0.438497,0.57229 1.029356,0.85843 1.772577,0.85843 0.382752,0 0.737644,-0.0725 1.064662,-0.2174 0.327016,-0.14493 0.641028,-0.34746 0.942027,-0.60758 v 0.65217 h 1.047946 v -8.67341 z m 27.335711,0 v 2.69791 c -0.2787,-0.14494 -0.5444,-0.25085 -0.7971,-0.31773 -0.25271,-0.0705 -0.54257,-0.10596 -0.86957,-0.10596 -0.36048,0 -0.70979,0.0743 -1.04796,0.22295 -0.33444,0.14866 -0.628,0.3642 -0.88072,0.64662 -0.2564,0.28986 -0.46079,0.64103 -0.61316,1.05352 -0.14863,0.41248 -0.22295,0.88257 -0.22295,1.41027 0,1.0145 0.21739,1.80789 0.65217,2.38017 0.43851,0.57229 1.02937,0.85843 1.77259,0.85843 0.38276,0 0.73764,-0.0725 1.06468,-0.2174 0.32702,-0.14493 0.64102,-0.34746 0.94202,-0.60758 v 0.65217 h 1.04794 v -8.67341 z m -43.645723,0.37348 v 0.84727 h 1.086963 v 6.60541 h -1.086963 v 0.84726 h 3.277613 v -0.84726 h -1.086963 v -6.60541 h 1.086963 v -0.84727 z m 46.839723,0 v 8.29994 h 2.09591 c 0.7618,0 1.37496,-0.052 1.83947,-0.15606 0.46823,-0.10413 0.89187,-0.27315 1.27091,-0.50726 0.54628,-0.33817 0.98291,-0.81383 1.30994,-1.42698 0.33073,-0.61316 0.49609,-1.29694 0.49609,-2.05131 0,-0.8064 -0.15793,-1.50317 -0.47379,-2.09031 -0.31588,-0.58716 -0.75624,-1.05724 -1.32109,-1.41027 -0.33075,-0.20439 -0.73579,-0.36419 -1.21517,-0.47938 -0.47566,-0.11893 -1.11855,-0.17837 -1.92866,-0.17837 z m 8.80721,0 v 8.29994 h 2.94317 c 0.57601,0 1.04979,-0.052 1.42141,-0.15606 0.37533,-0.10413 0.71906,-0.27872 1.03122,-0.52398 0.26384,-0.20439 0.47381,-0.46452 0.62987,-0.78038 0.15609,-0.31588 0.23412,-0.68006 0.23412,-1.09255 0,-0.576 -0.16164,-1.05167 -0.48495,-1.42699 -0.3233,-0.37904 -0.76552,-0.62616 -1.32665,-0.74137 v -0.0446 c 0.33445,-0.16722 0.60201,-0.38834 0.80268,-0.66332 0.20067,-0.2787 0.301,-0.61502 0.301,-1.00893 0,-0.34931 -0.0687,-0.64845 -0.20623,-0.89745 -0.1375,-0.25268 -0.35862,-0.45893 -0.66333,-0.61872 -0.27499,-0.14121 -0.56299,-0.23412 -0.86401,-0.27871 -0.301,-0.0446 -0.75437,-0.0669 -1.3601,-0.0669 z m 1.10369,0.94202 h 1.3155 c 0.3679,0 0.67633,0.013 0.92532,0.039 0.24899,0.0223 0.46079,0.0836 0.63545,0.18395 0.14864,0.0854 0.25642,0.19695 0.32331,0.33444 0.0669,0.1375 0.10036,0.30658 0.10036,0.50725 0,0.24155 -0.037,0.4515 -0.11144,0.62989 -0.0704,0.17465 -0.19324,0.31772 -0.36789,0.4292 -0.17466,0.11144 -0.36418,0.18581 -0.56856,0.22297 -0.20439,0.0335 -0.47939,0.0502 -0.82499,0.0502 h -1.42699 z m -8.8072,0.006 h 1.03679 c 0.51283,0 0.9532,0.0373 1.32108,0.11145 0.3679,0.0706 0.71535,0.19882 1.04238,0.38461 0.44963,0.25642 0.78781,0.6076 1.01449,1.05354 0.22669,0.44592 0.34003,0.99405 0.34003,1.64438 -1e-5,0.6466 -0.10413,1.18543 -0.31214,1.61651 -0.2044,0.43106 -0.51284,0.77852 -0.92533,1.04237 -0.33073,0.21182 -0.69491,0.35675 -1.09254,0.43478 -0.39391,0.0781 -0.85656,0.11707 -1.38797,0.11707 h -1.03679 z m -39.721514,0.95318 c -0.367896,0 -0.7265,0.0761 -1.075816,0.22854 -0.349315,0.15236 -0.687481,0.36418 -1.0145,0.63546 v -0.6912 h -1.047945 v 6.22636 h 1.047945 v -4.64887 c 0.286141,-0.21924 0.585287,-0.39947 0.89744,-0.54068 0.312155,-0.14123 0.611303,-0.21183 0.897446,-0.21183 0.278708,0 0.505391,0.0391 0.680049,0.11706 0.174658,0.0743 0.308438,0.18952 0.40134,0.3456 0.08919,0.14121 0.150502,0.33817 0.183948,0.59087 0.03344,0.24897 0.05018,0.51653 0.05018,0.80267 v 3.54518 h 1.047938 v -4.04127 c 0,-0.76181 -0.176512,-1.34524 -0.529543,-1.75029 -0.353031,-0.40506 -0.865858,-0.60759 -1.538476,-0.60759 z m 13.784878,0 c -0.906722,0 -1.638801,0.29916 -2.196212,0.89745 -0.553699,0.5983 -0.830546,1.40655 -0.830546,2.42476 0,1.02937 0.289857,1.82463 0.869562,2.38575 0.579717,0.55742 1.386106,0.83612 2.419183,0.83612 0.405059,0 0.791534,-0.0501 1.159422,-0.15049 0.367888,-0.10035 0.728359,-0.22482 1.081385,-0.37348 v -1.14265 h -0.05578 c -0.18209,0.16349 -0.488664,0.33072 -0.919735,0.50166 -0.427354,0.16723 -0.852846,0.25085 -1.276478,0.25085 -0.319585,0 -0.613168,-0.0446 -0.880716,-0.13379 -0.263844,-0.0891 -0.492391,-0.22296 -0.685622,-0.40135 -0.200673,-0.18208 -0.358602,-0.41432 -0.473801,-0.69677 -0.115203,-0.28614 -0.172803,-0.62059 -0.172803,-1.00334 h 4.58752 v -0.56857 c 0,-0.90301 -0.228531,-1.59978 -0.685614,-2.09031 -0.453367,-0.49054 -1.099972,-0.73579 -1.939809,-0.73579 z m 13.422606,0 c -0.90673,0 -1.6388,0.29916 -2.19622,0.89745 -0.55371,0.5983 -0.83055,1.40655 -0.83055,2.42476 0,1.02937 0.28985,1.82463 0.86956,2.38575 0.57972,0.55742 1.38611,0.83612 2.4192,0.83612 0.40505,0 0.79153,-0.0501 1.15943,-0.15049 0.36789,-0.10035 0.72836,-0.22482 1.08139,-0.37348 v -1.14265 h -0.0558 c -0.18209,0.16349 -0.48868,0.33072 -0.91974,0.50166 -0.42735,0.16723 -0.85284,0.25085 -1.27649,0.25085 -0.31958,0 -0.61316,-0.0446 -0.88072,-0.13379 -0.26384,-0.0891 -0.49238,-0.22296 -0.68562,-0.40135 -0.20066,-0.18208 -0.3586,-0.41432 -0.4738,-0.69677 -0.11521,-0.28614 -0.17279,-0.62059 -0.17279,-1.00334 h 4.58753 v -0.56857 c 0,-0.90301 -0.22855,-1.59978 -0.68561,-2.09031 -0.45337,-0.49054 -1.09997,-0.73579 -1.93981,-0.73579 z m -9.883002,0.1728 2.408026,3.12154 -2.430337,3.10482 h 1.220741 l 1.778179,-2.39133 1.767003,2.39133 h 1.32107 l -2.447047,-3.16056 2.447047,-3.0658 h -1.22631 l -1.761431,2.35231 -1.755868,-2.35231 z m -3.595336,0.6912 c 0.55741,0 0.971755,0.15051 1.243027,0.45151 0.274995,0.30099 0.414349,0.72651 0.418059,1.27648 h -3.567451 c 0.04455,-0.49052 0.232256,-0.90114 0.562986,-1.23188 0.33445,-0.33074 0.782247,-0.49611 1.343379,-0.49611 z m 13.422588,0 c 0.55741,0 0.97176,0.15051 1.24305,0.45151 0.27499,0.30099 0.41435,0.72651 0.41806,1.27648 h -3.56746 c 0.0446,-0.49052 0.23225,-0.90114 0.56299,-1.23188 0.33445,-0.33074 0.78223,-0.49611 1.34336,-0.49611 z m -20.551925,0.0948 c 0.263843,0 0.507252,0.0242 0.730212,0.0725 0.222969,0.0483 0.475657,0.13564 0.758082,0.26199 v 3.57305 c -0.263839,0.2081 -0.548123,0.37904 -0.852844,0.51281 -0.304723,0.13007 -0.605723,0.1951 -0.903014,0.1951 -0.557409,0 -0.962468,-0.19137 -1.215155,-0.57414 -0.2527,-0.38648 -0.379044,-0.94946 -0.379044,-1.68897 0,-0.75066 0.163505,-1.33037 0.490522,-1.73914 0.32702,-0.40878 0.784103,-0.61316 1.371241,-0.61316 z m 27.335695,0 c 0.26385,0 0.50726,0.0242 0.73023,0.0725 0.22297,0.0483 0.47567,0.13564 0.75808,0.26199 v 3.57305 c -0.26383,0.2081 -0.54811,0.37904 -0.85285,0.51281 -0.30471,0.13007 -0.60572,0.1951 -0.90302,0.1951 -0.55741,0 -0.96246,-0.19137 -1.21515,-0.57414 -0.2527,-0.38648 -0.37905,-0.94946 -0.37905,-1.68897 0,-0.75066 0.1635,-1.33037 0.49052,-1.73914 0.32703,-0.40878 0.7841,-0.61316 1.37124,-0.61316 z m 14.59321,1.41027 h 1.73357 c 0.36418,0 0.67261,0.0149 0.92531,0.0446 0.25641,0.0259 0.47381,0.0855 0.65218,0.17837 0.26385,0.1375 0.44593,0.30472 0.54626,0.50169 0.10035,0.19694 0.15051,0.46265 0.15051,0.7971 0,0.29357 -0.0483,0.53326 -0.14493,0.71907 -0.0967,0.1858 -0.24898,0.35117 -0.45709,0.4961 -0.19695,0.13378 -0.44964,0.22668 -0.75808,0.27871 -0.30843,0.0483 -0.70421,0.0725 -1.18731,0.0725 h -1.46042 z"
       inkscape:connector-curvature="0" />
    <path
       style="font-style:normal;font-weight:normal;font-size:10.58333302px;line-height:1.25;font-family:sans-serif;letter-spacing:0px;word-spacing:0px;fill:#c71212;fill-opacity:1;stroke:#ff5b5b;stroke-width:1.02499998;stroke-miterlimit:4;stroke-dasharray:none;stroke-opacity:1"
       d="m 60.589525,200.09318 c 0.02461,5.52488 0.02546,11.04478 0.0026,16.55969 0.140284,0.0301 0.280604,0.06 0.42096,0.0898 0.0074,-1.87637 0.01215,-3.75332 0.01437,-5.63085 0.228989,-3.82727 1.78804,-5.55864 4.721988,-5.29482 2.596691,0.48575 3.896889,2.25347 3.894435,5.39172 -0.0019,2.39169 -0.0029,4.78239 -0.003,7.17211 0.141663,0.0237 0.283354,0.0473 0.425073,0.0707 -2.04e-4,-2.38965 6.56e-4,-4.7803 0.0026,-7.17192 0.0027,-3.36735 -1.439355,-5.29457 -4.319086,-5.89014 -2.257726,-0.30815 -3.824033,0.67404 -4.720536,2.99076 -4e-4,-2.73177 -0.0062,-5.46478 -0.01752,-8.19901 -1.22e-4,-3e-5 -0.421654,-0.0881 -0.421776,-0.0881 z m 42.636835,4.5253 c -0.0449,5.46869 -0.0634,10.9391 -0.0555,16.41124 0.11486,-0.001 0.22971,-0.003 0.34455,-0.004 -0.002,-1.38196 -0.002,-2.7638 -6.4e-4,-4.14552 1.20568,-1.00192 2.41476,-2.01723 3.62182,-3.04243 1.80875,2.34534 3.59543,4.62789 5.40193,6.91454 -2.3e-4,1.9e-4 0.34361,-0.27666 0.34338,-0.27647 -1.83475,-2.30945 -3.64899,-4.61464 -5.48611,-6.98464 1.69476,-1.49311 3.39638,-3.01518 5.08899,-4.55646 1.6e-4,1.5e-4 -0.25678,-0.23697 -0.25662,-0.23682 -2.89086,2.61876 -5.82178,5.19397 -8.71279,7.67469 0.005,-3.91978 0.0238,-7.83861 0.0556,-11.75648 -0.11487,0.001 -0.22974,0.002 -0.34461,0.003 z m 35.64324,-4.39011 c 0.0457,2.6332 0.0702,5.27174 0.0732,7.9156 -0.89967,-2.17246 -2.4514,-3.00848 -4.64171,-2.59944 -3.15003,0.89621 -4.80836,3.23872 -4.99406,7.23278 0.041,3.92899 1.71293,5.69557 5.0301,5.07826 2.2455,-0.56951 3.7797,-2.06543 4.58341,-4.41655 -0.0106,1.1117 -0.025,2.22434 -0.0431,3.33791 0.13974,-0.0328 0.27945,-0.0658 0.41912,-0.099 0.0919,-5.54219 0.0887,-11.06083 -0.01,-16.55592 -0.13906,0.0357 -0.27817,0.0711 -0.41732,0.10635 z m -59.495151,7.25677 c -3.483786,-0.0766 -5.390893,1.72032 -5.735,5.55047 0.280812,3.78788 2.188236,6.14477 5.725661,6.89833 3.539185,0.0722 5.447634,-1.83503 5.736223,-5.54323 -0.340621,-3.89754 -2.241967,-6.1455 -5.726884,-6.90557 z m 14.43397,1.19226 c -3.503804,0.18459 -5.437518,2.10712 -5.786403,5.94898 0.281831,3.75213 2.213361,5.95953 5.768617,6.44038 3.555744,-0.19756 5.471661,-2.24722 5.764449,-5.95892 -0.338518,-3.85154 -2.24411,-5.93566 -5.746663,-6.43044 z m 26.903211,-0.90769 c -3.47666,0.68766 -5.34304,2.85059 -5.5841,6.71049 0.15971,3.80076 2.0449,5.71687 5.62907,5.52886 2.8428,-0.3842 4.6422,-1.76173 5.39075,-4.01354 -0.14164,-0.035 -0.28331,-0.0701 -0.42502,-0.10547 -0.63438,2.11987 -2.29105,3.41601 -4.964,3.78081 -3.18626,0.19872 -4.9281,-1.51591 -5.2029,-4.97266 3.60345,-0.30177 7.19705,-0.72243 10.77399,-1.26802 -0.0411,-4.12696 -1.92097,-5.92421 -5.61779,-5.66047 z m -41.338861,0.1422 c 3.255696,0.73213 5.016297,2.83136 5.29981,6.44042 -0.288413,3.53964 -2.054703,5.30825 -5.308509,5.15536 -3.251702,-0.66384 -5.01787,-2.84851 -5.299011,-6.40967 0.287056,-3.55318 2.052934,-5.23491 5.30771,-5.18611 z m 14.433174,1.19005 c 3.2726,0.48403 5.037277,2.43207 5.318838,6.00106 -0.292486,3.54398 -2.065811,5.44391 -5.335405,5.53935 -3.268472,-0.41335 -5.055868,-2.45921 -5.337991,-5.98516 0.291195,-3.56131 2.080641,-5.35998 5.354558,-5.55525 z m 26.905017,-0.91025 c 3.30049,-0.32947 5.03644,1.22707 5.19449,4.88012 -3.43647,0.51503 -6.88807,0.91472 -10.34876,1.20453 0.29737,-3.52426 2.01907,-5.49332 5.15427,-6.08465 z m 13.59235,-2.22297 c 2.86123,-0.38137 4.42636,1.16209 4.63551,4.82126 -0.18304,3.67826 -1.7372,5.97332 -4.59721,6.72476 -3.03678,0.56125 -4.5679,-1.10521 -4.60978,-4.81139 0.18454,-3.711 1.70196,-5.89908 4.57148,-6.73463 z"
       id="text916"
       inkscape:connector-curvature="0"
       inkscape:path-effect="#path-effect937"
       inkscape:original-d="m 60.650297,200.30623 v 16.55943 h 0.426973 v -5.63355 c 0.227619,-3.86952 1.821136,-5.94634 4.780175,-6.23087 2.617613,0 3.926228,1.56469 3.926228,4.69444 v 7.16998 h 0.426973 v -7.16998 c 0,-3.35737 -1.451066,-5.0645 -4.353201,-5.12141 -2.276181,0.11384 -3.869702,1.42242 -4.780175,3.92622 v -8.19426 z m 42.507723,0 v 16.55943 h 0.34182 v -4.18231 l 3.58498,-2.98767 5.37749,7.25515 0.34123,-0.25607 -5.46265,-7.34032 5.03568,-4.3532 -0.25607,-0.25607 -8.62066,7.42604 v -11.86498 z m 35.76473,0 v 7.93819 c -0.91048,-2.38999 -2.47516,-3.61324 -4.69444,-3.67015 -3.18666,0.22762 -4.86552,2.33328 -5.03624,6.31659 0.0568,3.98333 1.76404,6.00306 5.1214,6.05997 2.27618,-0.11385 3.81262,-1.25172 4.60928,-3.41409 v 3.32892 h 0.42697 v -16.55943 z m -59.408393,4.26804 c -3.47118,0.34143 -5.377293,2.44708 -5.718723,6.31659 0.284526,3.75571 2.190637,5.80428 5.718723,6.1457 3.528087,-0.34142 5.434197,-2.38999 5.718723,-6.1457 -0.34143,-3.86951 -2.247544,-5.97516 -5.718723,-6.31659 z m 14.339955,0 c -3.471178,0.34143 -5.377292,2.44708 -5.718721,6.31659 0.284525,3.75571 2.190637,5.80428 5.718721,6.1457 3.528093,-0.34142 5.434196,-2.38999 5.718722,-6.1457 -0.341424,-3.86951 -2.247539,-5.97516 -5.718722,-6.31659 z m 26.716518,0 c -3.47118,0.28452 -5.3202,2.36135 -5.54783,6.23086 0.17073,3.86951 2.04858,5.91808 5.63356,6.1457 2.84523,-0.0569 4.63774,-1.16654 5.37748,-3.32893 l -0.42696,-0.17032 c -0.62595,2.04856 -2.276,3.1011 -4.95052,3.15801 -3.18664,-0.17071 -4.92261,-2.02032 -5.20715,-5.54838 h 10.75497 c -0.0569,-4.15405 -1.93476,-6.31623 -5.63355,-6.48694 z m -41.056473,0.42697 c 3.243561,0.34143 5.007794,2.30465 5.292316,5.88962 -0.284522,3.585 -2.048755,5.49111 -5.292316,5.71873 -3.24356,-0.28453 -5.007794,-2.19063 -5.292316,-5.71873 0.284522,-3.58497 2.048756,-5.54819 5.292316,-5.88962 z m 14.339955,0 c 3.243556,0.34143 5.007791,2.30465 5.292316,5.88962 -0.284525,3.585 -2.04876,5.49111 -5.292316,5.71873 -3.24356,-0.28453 -5.007792,-2.19063 -5.292315,-5.71873 0.284523,-3.58497 2.048755,-5.54819 5.292315,-5.88962 z m 26.716518,0 c 3.30046,0.0569 5.03643,1.93476 5.20715,5.63356 h -10.32857 c 0.28454,-3.52809 1.99167,-5.40594 5.12142,-5.63356 z m 13.65748,0 c 2.90213,0.22762 4.46682,2.19083 4.69444,5.88962 -0.17072,3.64189 -1.70714,5.54802 -4.60928,5.71873 -3.07284,-0.0568 -4.63753,-1.96302 -4.69443,-5.71873 0.17071,-3.69879 1.70714,-5.662 4.60927,-5.88962 z" />
    <path
       style="display:inline;opacity:1;fill:none;fill-opacity:1;stroke:#ff5b5b;stroke-width:0.5;stroke-linecap:round;stroke-linejoin:round;stroke-miterlimit:4;stroke-dasharray:none;stroke-dashoffset:0;stroke-opacity:1;paint-order:fill markers stroke"
       d="m 97.769194,239.43216 a 5.4355141,2.2499207 60.229923 0 0 -0.44195,0.12758 5.4355141,2.2499207 60.229923 0 0 -0.463702,2.85672 5.4355141,2.2499207 0.20990599 0 0 -2.299007,1.82302 5.4355141,2.2499207 0.20990599 0 0 2.309923,1.85053 2.2499207,5.4355141 29.770077 0 0 0.452786,2.90678 2.2499207,5.4355141 29.770077 0 0 2.698196,-1.05203 5.4355141,2.2499207 60.229923 0 0 2.69822,1.05203 5.4355141,2.2499207 60.229923 0 0 0.4532,-2.90479 5.4355141,2.2499207 0.20990599 0 0 2.25863,-1.81124 5.4355141,2.2499207 0.20990599 0 0 -2.25497,-1.83302 2.2499207,5.4355141 29.770077 0 0 -0.45686,-2.888 2.2499207,5.4355141 29.770077 0 0 -2.69822,1.05202 5.4355141,2.2499207 60.229923 0 0 -2.256246,-1.1796 z"
       id="path1548-2"
       inkscape:connector-curvature="0" />
    <path
       style="display:inline;opacity:1;fill:none;fill-opacity:1;stroke:#ff5b5b;stroke-width:0.60000002;stroke-linecap:round;stroke-linejoin:round;stroke-miterlimit:4;stroke-dasharray:none;stroke-dashoffset:0;stroke-opacity:1;paint-order:fill markers stroke"
       d="m 99.971447,150.9861 a 10.072317,1.4237238 0.06060851 0 0 -2.28648,0.036 2.1943511,6.5350519 69.613179 0 0 -1.305609,0.6933 2.1943511,6.5350519 69.613179 0 0 -1.048183,0.70592 6.5350519,2.1943511 20.386821 0 0 1.048183,0.70594 6.5350519,2.1943511 20.386821 0 0 1.244847,0.66374 10.072317,1.4237238 0.06060851 0 0 2.310106,0.0425 10.072317,1.4237238 0.06060851 0 0 2.437379,-0.0406 2.1943511,6.5350519 69.613179 0 0 1.24896,-0.66574 2.1943511,6.5350519 69.613179 0 0 1.04818,-0.70592 6.5350519,2.1943511 20.386821 0 0 -1.04818,-0.70593 6.5350519,2.1943511 20.386821 0 0 -1.28814,-0.6848 10.072317,1.4237238 0.06060851 0 0 -2.361063,-0.0445 z"
       id="path1548-8"
       inkscape:connector-curvature="0" />
  </g>
</svg>
