<?xml version="1.0" encoding="UTF-8" standalone="no"?>
<!-- Created with Inkscape (http://www.inkscape.org/) -->

<svg
   xmlns:dc="http://purl.org/dc/elements/1.1/"
   xmlns:cc="http://creativecommons.org/ns#"
   xmlns:rdf="http://www.w3.org/1999/02/22-rdf-syntax-ns#"
   xmlns:svg="http://www.w3.org/2000/svg"
   xmlns="http://www.w3.org/2000/svg"
   xmlns:sodipodi="http://sodipodi.sourceforge.net/DTD/sodipodi-0.dtd"
   xmlns:inkscape="http://www.inkscape.org/namespaces/inkscape"
   width="200mm"
   height="200mm"
   viewBox="0 0 200 200"
   version="1.1"
   id="svg8"
   inkscape:version="0.92.2 (5c3e80d, 2017-08-06)"
   sodipodi:docname="idb_hooked.svg">
  <defs
     id="defs2">
    <inkscape:path-effect
       effect="envelope"
       id="path-effect937"
       is_visible="true"
       yy="true"
       xx="false"
       bendpath1="m 67.483456,199.7321 c 22.27558,4.66869 44.057024,5.38662 65.033014,0"
       bendpath2="m 132.51647,199.7321 v 13.82505"
       bendpath3="m 67.483456,213.55715 c 22.284204,4.77306 44.355434,4.91508 65.033014,0"
       bendpath4="m 67.483456,199.7321 v 13.82505"
       bendpath1-nodetypes="cc"
       bendpath3-nodetypes="cc" />
    <inkscape:path-effect
       effect="envelope"
       id="path-effect904"
       is_visible="true"
       yy="true"
       xx="false"
       bendpath1="m 75.166603,179.58737 c 14.81605,3.47433 31.596287,2.24287 51.156427,0"
       bendpath2="m 126.32303,179.58737 v 7.31006"
       bendpath3="m 75.166603,186.89743 c 20.50627,4.14375 36.208597,2.95333 51.156427,0"
       bendpath4="m 75.166603,179.58737 v 7.31006"
       bendpath1-nodetypes="cc"
       bendpath3-nodetypes="cc" />
    <inkscape:path-effect
       effect="envelope"
       id="path-effect865"
       is_visible="true"
       yy="true"
       xx="true"
       bendpath1="m 113.34487,177.83417 h 14.34796 14.34796 28.69592"
       bendpath2="m 170.73671,177.83417 v 8.20103"
       bendpath3="m 113.34487,186.0352 h 57.39184"
       bendpath4="m 113.34487,177.83417 v 8.20103"
       bendpath1-nodetypes="cccc" />
    <inkscape:path-effect
       effect="envelope"
       id="path-effect4908"
       is_visible="true"
       yy="true"
       xx="true"
       bendpath1="M 56.619047,225.31875 H 153.38095"
       bendpath2="m 153.38095,225.31875 v 15.87501"
       bendpath3="M 56.619047,241.19376 H 153.38095"
       bendpath4="m 56.619047,225.31875 v 15.87501" />
    <inkscape:path-effect
       effect="envelope"
       id="path-effect4891"
       is_visible="true"
       yy="true"
       xx="true"
       bendpath1="m 74.225206,234.68161 c 0,0 21.755729,6.06038 31.341764,6.06038 9.58603,0 30.01883,-5.84616 30.01883,-5.84616"
       bendpath2="m 133.69592,245.30292 v 8.20103"
       bendpath3="m 76.682051,269.80765 12.930551,-4.20846 16.143348,0.94494 15.2929,-0.85045 13.781,1.69481"
       bendpath4="m 76.304075,245.30292 v 8.20103"
       bendpath1-nodetypes="csc"
       bendpath3-nodetypes="ccccc" />
    <inkscape:path-effect
       effect="envelope"
       id="path-effect4866"
       is_visible="true"
       yy="true"
       xx="true"
       bendpath1="m 63.452008,238.31877 h 3.105394"
       bendpath2="m 66.557402,238.31877 v 11.19834"
       bendpath3="m 63.452008,249.51711 h 3.105394"
       bendpath4="m 63.452008,238.31877 v 11.19834" />
    <inkscape:path-effect
       effect="bspline"
       id="path-effect4731"
       is_visible="true"
       weight="33.333333"
       steps="2"
       helper_size="0"
       apply_no_weight="true"
       apply_with_weight="true"
       only_selected="false" />
    <inkscape:path-effect
       effect="bspline"
       id="path-effect4727"
       is_visible="true"
       weight="33.333333"
       steps="2"
       helper_size="0"
       apply_no_weight="true"
       apply_with_weight="true"
       only_selected="false" />
  </defs>
  <sodipodi:namedview
     id="base"
     pagecolor="#ffffff"
     bordercolor="#666666"
     borderopacity="1.0"
     inkscape:pageopacity="0.0"
     inkscape:pageshadow="2"
     inkscape:zoom="0.7"
     inkscape:cx="377.76205"
     inkscape:cy="419.30562"
     inkscape:document-units="mm"
     inkscape:current-layer="layer1"
     showgrid="false"
     inkscape:snap-bbox="true"
     inkscape:bbox-paths="true"
     inkscape:bbox-nodes="true"
     inkscape:lockguides="true"
     inkscape:window-width="1920"
     inkscape:window-height="1017"
     inkscape:window-x="-8"
     inkscape:window-y="-8"
     inkscape:window-maximized="1"
     inkscape:measure-start="0,0"
     inkscape:measure-end="0,0"
     showguides="false" />
  <metadata
     id="metadata5">
    <rdf:RDF>
      <cc:Work
         rdf:about="">
        <dc:format>image/svg+xml</dc:format>
        <dc:type
           rdf:resource="http://purl.org/dc/dcmitype/StillImage" />
        <dc:title />
      </cc:Work>
    </rdf:RDF>
  </metadata>
  <g
     inkscape:groupmode="layer"
     id="layer3"
     inkscape:label="Vrstva 3"
     style="display:inline"
     transform="translate(0,-97)">
           <animateTransform attributeType="xml" attributeName="transform" type="rotate" from="0 100 197" to="359 100 197" dur="20s" additive="sum" repeatCount="indefinite" />

    <path
       inkscape:connector-curvature="0"
       style="display:inline;opacity:1;fill:none;fill-opacity:1;stroke:#ffb6b6;stroke-width:0.89730614;stroke-linecap:round;stroke-linejoin:round;stroke-miterlimit:4;stroke-dasharray:none;stroke-dashoffset:0;stroke-opacity:1;paint-order:fill markers stroke"
       d="m 100.38342,107.06523 a 64.266267,89.551345 0 0 1 64.26627,89.55135 64.266267,89.551345 0 0 1 -64.26627,89.55135 64.266267,89.551345 0 0 1 -64.266264,-89.55135 64.266267,89.551345 0 0 1 64.266264,-89.55135 z"
       id="path1971" />
    <path
       inkscape:connector-curvature="0"
       style="display:inline;opacity:1;fill:none;fill-opacity:1;stroke:#ffb6b6;stroke-width:0.89730614;stroke-linecap:round;stroke-linejoin:round;stroke-miterlimit:4;stroke-dasharray:none;stroke-dashoffset:0;stroke-opacity:1;paint-order:fill markers stroke"
       d="M 37.061055,133.29422 A 89.551345,64.266267 45 0 1 145.82653,151.17348 89.551345,64.266267 45 0 1 163.70579,259.93895 89.551345,64.266267 45 0 1 54.940305,242.0597 89.551345,64.266267 45 0 1 37.061055,133.29422 Z"
       id="path1971-5-5-1" />
    <path
       inkscape:connector-curvature="0"
       style="display:inline;opacity:1;fill:none;fill-opacity:1;stroke:#ffb6b6;stroke-width:0.89730614;stroke-linecap:round;stroke-linejoin:round;stroke-miterlimit:4;stroke-dasharray:none;stroke-dashoffset:0;stroke-opacity:1;paint-order:fill markers stroke"
       d="M 37.061055,259.93895 A 64.266267,89.551345 45 0 1 54.940307,151.17348 64.266267,89.551345 45 0 1 163.70579,133.29422 64.266267,89.551345 45 0 1 145.82653,242.0597 64.266267,89.551345 45 0 1 37.061055,259.93895 Z"
       id="path1971-8" />
    <path
       inkscape:connector-curvature="0"
       style="display:inline;opacity:1;fill:none;fill-opacity:1;stroke:#ffb6b6;stroke-width:0.89730614;stroke-linecap:round;stroke-linejoin:round;stroke-miterlimit:4;stroke-dasharray:none;stroke-dashoffset:0;stroke-opacity:1;paint-order:fill markers stroke"
       d="m 10.832069,196.61659 a 89.551345,64.266267 0 0 1 89.551351,-64.26627 89.551345,64.266267 0 0 1 89.55134,64.26627 89.551345,64.266267 0 0 1 -89.55134,64.26627 89.551345,64.266267 0 0 1 -89.551351,-64.26627 z"
       id="path1971-87" />
  </g>
  <g
     inkscape:groupmode="layer"
     id="layer2"
     inkscape:label="Vrstva 2"
     style="display:none"
     transform="translate(0,-97)">
    <g
       id="g1968"
       transform="matrix(0.84927742,0,0,0.84927742,14.767537,14.782919)">
      <ellipse
         transform="matrix(0.00231487,-0.99999731,0.99997329,0.00730752,0,0)"
         ry="100.16615"
         rx="79.756805"
         cy="105.26058"
         cx="-111.35488"
         id="path1548-7-9-9"
         style="display:inline;opacity:1;fill:none;fill-opacity:1;stroke:#ff5b5b;stroke-width:0.29356119;stroke-linecap:round;stroke-linejoin:round;stroke-miterlimit:4;stroke-dasharray:none;stroke-dashoffset:0;stroke-opacity:1;paint-order:fill markers stroke" />
      <ellipse
         transform="matrix(-0.99999731,-0.00231489,0.00730753,-0.99997329,0,0)"
         ry="100.16616"
         rx="79.756805"
         cy="-111.88182"
         cx="-105.81786"
         id="path1548-7-9-9-6-4-5"
         style="display:inline;opacity:1;fill:none;fill-opacity:1;stroke:#ff5b5b;stroke-width:0.29356119;stroke-linecap:round;stroke-linejoin:round;stroke-miterlimit:4;stroke-dasharray:none;stroke-dashoffset:0;stroke-opacity:1;paint-order:fill markers stroke" />
      <ellipse
         transform="matrix(-0.49799391,-0.86718053,0.86965605,-0.49365815,0,0)"
         ry="100.16615"
         rx="79.756805"
         cy="35.21743"
         cx="-149.34509"
         id="path1548-7-9-9-6"
         style="display:inline;opacity:1;fill:none;fill-opacity:1;stroke:#ff5b5b;stroke-width:0.29356119;stroke-linecap:round;stroke-linejoin:round;stroke-miterlimit:4;stroke-dasharray:none;stroke-dashoffset:0;stroke-opacity:1;paint-order:fill markers stroke" />
      <ellipse
         transform="matrix(-0.86486563,-0.5020034,0.50631516,-0.86234852,0,0)"
         ry="100.16615"
         rx="79.756805"
         cy="-44.262203"
         cx="-147.31841"
         id="path1548-7-9-9-6-4"
         style="display:inline;opacity:1;fill:none;fill-opacity:1;stroke:#ff5b5b;stroke-width:0.29356119;stroke-linecap:round;stroke-linejoin:round;stroke-miterlimit:4;stroke-dasharray:none;stroke-dashoffset:0;stroke-opacity:1;paint-order:fill markers stroke" />
      <ellipse
         transform="matrix(-0.86718053,0.49799391,-0.49365813,-0.86965605,0,0)"
         ry="100.16615"
         rx="79.756805"
         cy="-149.5228"
         cx="-35.963509"
         id="path1548-7-9-9-6-4-5-7"
         style="display:inline;opacity:1;fill:none;fill-opacity:1;stroke:#ff5b5b;stroke-width:0.29356119;stroke-linecap:round;stroke-linejoin:round;stroke-miterlimit:4;stroke-dasharray:none;stroke-dashoffset:0;stroke-opacity:1;paint-order:fill markers stroke" />
      <ellipse
         transform="matrix(-0.5020034,0.86486563,-0.86234852,-0.50631516,0,0)"
         ry="100.16615"
         rx="79.756805"
         cy="-147.09924"
         cx="43.527229"
         id="path1548-7-9-9-6-4-5-7-9"
         style="display:inline;opacity:1;fill:none;fill-opacity:1;stroke:#ff5b5b;stroke-width:0.29356119;stroke-linecap:round;stroke-linejoin:round;stroke-miterlimit:4;stroke-dasharray:none;stroke-dashoffset:0;stroke-opacity:1;paint-order:fill markers stroke" />
    </g>
  </g>
  <g
     inkscape:label="Vrstva 1"
     inkscape:groupmode="layer"
     id="layer1"
     style="display:inline"
     transform="translate(0,-97)">
    <path
       id="path4568"
       style="opacity:1;fill:#dfc1a7;fill-opacity:0;stroke:#020202;stroke-width:1.23952019;stroke-linecap:round;stroke-linejoin:round;stroke-miterlimit:4;stroke-dasharray:none;stroke-dashoffset:0;stroke-opacity:1;paint-order:fill markers stroke;fill-rule:nonzero"
       d="m 57.501661,161.3828 a 42.544538,14.296443 0 0 0 42.521329,13.82431 42.544538,14.296443 0 0 0 42.52138,-13.82488 M 99.999786,147.55721 a 42.544538,14.296443 0 0 0 -42.474168,13.82502 h -0.07044 v 0.47143 70.29271 a 42.544538,14.296443 0 0 0 42.544609,14.29643 42.544538,14.296443 0 0 0 42.544573,-14.29643 v -70.29271 -0.47143 h -0.05 A 42.544538,14.296443 0 0 0 99.999786,147.55721 Z"
       inkscape:connector-curvature="0" />
    <path
       inkscape:connector-curvature="0"
       style="opacity:1;fill:#f69aa5;fill-opacity:0;stroke:#020202;stroke-width:1.23952019;stroke-linecap:round;stroke-linejoin:round;stroke-miterlimit:4;stroke-dasharray:none;stroke-dashoffset:0;stroke-opacity:1;paint-order:fill markers stroke"
       d="m 142.54725,211.04915 v 0 a 42.547499,13.960898 0 0 1 -42.547502,13.9609 42.547499,13.960898 0 0 1 -42.547503,-13.9609"
       id="path4572-6" />
    <path
       inkscape:connector-curvature="0"
       style="opacity:1;fill:#f69aa5;fill-opacity:0;stroke:#020202;stroke-width:1.23952019;stroke-linecap:round;stroke-linejoin:round;stroke-miterlimit:4;stroke-dasharray:none;stroke-dashoffset:0;stroke-opacity:1;paint-order:fill markers stroke"
       d="m 142.54725,183.4664 v 0 A 42.547499,13.960898 0 0 1 99.999748,197.42731 42.547499,13.960898 0 0 1 57.452241,183.4664"
       id="path4572-1" />
    <path
       style="font-style:normal;font-weight:normal;font-size:10.58333302px;line-height:1.25;font-family:sans-serif;letter-spacing:0px;word-spacing:0px;fill:#000000;fill-opacity:1;stroke:none;stroke-width:0.18280227;stroke-miterlimit:4;stroke-dasharray:none;stroke-opacity:1"
       d="m 88.409608,181.38002 c 0.02534,0.74025 0.04601,1.48106 0.062,2.22244 -0.233212,-0.13767 -0.454971,-0.24284 -0.6651,-0.31549 -0.210262,-0.0756 -0.450424,-0.12557 -0.72068,-0.1502 -0.29786,-0.0272 -0.585153,0.006 -0.862256,0.10006 -0.274049,0.0941 -0.513559,0.24513 -0.718961,0.45365 -0.208385,0.21429 -0.373549,0.48254 -0.495807,0.80566 -0.119191,0.32351 -0.177012,0.70086 -0.173807,1.13317 0.0062,0.83086 0.187865,1.50352 0.547785,2.01565 0.362791,0.51221 0.850045,0.80421 1.464626,0.86945 0.316536,0.0336 0.610491,0.004 0.881814,-0.0891 0.27129,-0.0929 0.532254,-0.23558 0.78239,-0.42792 -5.97e-4,0.17975 -0.0015,0.35953 -0.0026,0.53935 0.289296,0.0268 0.578674,0.0526 0.868126,0.0774 0.01769,-2.39695 -0.017,-4.78879 -0.104097,-7.17549 -0.28794,-0.0183 -0.575749,-0.0378 -0.863421,-0.0586 z m 22.688752,-0.40076 c 0.0136,0.79969 0.0264,1.59805 0.0384,2.39508 -0.23239,-0.10938 -0.45372,-0.18541 -0.66387,-0.22803 -0.21023,-0.0458 -0.45073,-0.0584 -0.72157,-0.0378 -0.29857,0.0227 -0.58664,0.10985 -0.86417,0.26127 -0.27446,0.15122 -0.51372,0.35828 -0.71824,0.62144 -0.20744,0.26993 -0.37087,0.59022 -0.49104,0.96135 -0.11707,0.37091 -0.17248,0.78817 -0.16699,1.25222 0.0106,0.8919 0.19431,1.57857 0.55726,2.06026 0.3658,0.48121 0.85691,0.70345 1.47353,0.66142 0.31745,-0.0216 0.61133,-0.10653 0.88123,-0.25428 0.26991,-0.14779 0.5282,-0.3463 0.77469,-0.59548 0.002,0.1914 0.004,0.38272 0.006,0.57397 0.28933,-0.0234 0.57858,-0.0476 0.86774,-0.0729 -0.0322,-2.54319 -0.0657,-5.10096 -0.10042,-7.6733 -0.29085,0.0254 -0.58173,0.0503 -0.87262,0.0748 z m -36.009194,-1.28087 c -0.0069,0.23196 -0.01316,0.46407 -0.01871,0.69633 0.294408,0.068 0.589023,0.13433 0.883838,0.19893 -0.03452,1.80483 -0.03398,3.6183 0.0016,5.44042 -0.296956,-0.0589 -0.593746,-0.11898 -0.890363,-0.18024 0.0051,0.23457 0.01095,0.46928 0.01745,0.70414 0.892334,0.18192 1.786389,0.35381 2.681977,0.51573 -0.0043,-0.23268 -0.0081,-0.46524 -0.01164,-0.69766 -0.297601,-0.0542 -0.595049,-0.1096 -0.892337,-0.16614 -0.03133,-1.81652 -0.03401,-3.62475 -0.008,-5.42471 0.295215,0.0612 0.590624,0.12068 0.88622,0.17854 0.0023,-0.23039 0.005,-0.46065 0.008,-0.69079 -0.887992,-0.17572 -1.77406,-0.36695 -2.658027,-0.57455 z m 38.670364,1.37701 c 0.0148,2.46022 0.0439,4.90551 0.0873,7.33588 0.57758,-0.058 1.15478,-0.11975 1.73153,-0.18515 0.62854,-0.0713 1.13383,-0.17861 1.51364,-0.31682 0.3833,-0.13878 0.72763,-0.33096 1.03327,-0.57528 0.44068,-0.35294 0.7864,-0.81398 1.04235,-1.38193 0.25889,-0.56814 0.38421,-1.1798 0.3797,-1.8359 -0.005,-0.70171 -0.13161,-1.29362 -0.38723,-1.77736 -0.25568,-0.48388 -0.61277,-0.85601 -1.07634,-1.11686 -0.27135,-0.15061 -0.60507,-0.25615 -1.00169,-0.31679 -0.39362,-0.0643 -0.92662,-0.0624 -1.5997,0.004 -0.57407,0.0568 -1.14836,0.11222 -1.72281,0.16597 z m 7.30712,-0.75718 c -0.0829,2.41065 -0.0706,4.79966 0.037,7.16704 0.80524,-0.12467 1.60929,-0.25649 2.41204,-0.39539 0.4711,-0.0815 0.85617,-0.19477 1.15399,-0.33599 0.30117,-0.14196 0.57222,-0.33808 0.81464,-0.58701 0.20506,-0.20803 0.36377,-0.45334 0.47844,-0.73596 0.1147,-0.28267 0.16606,-0.59295 0.15697,-0.93264 -0.0127,-0.47428 -0.14663,-0.84519 -0.40908,-1.11612 -0.26233,-0.27391 -0.61875,-0.42718 -1.07403,-0.45797 1.1e-4,-0.0125 2.1e-4,-0.025 3.3e-4,-0.0376 0.27301,-0.17998 0.49277,-0.39683 0.66087,-0.65009 0.16818,-0.2564 0.25785,-0.54878 0.27084,-0.87863 0.0115,-0.29263 -0.0322,-0.53613 -0.13383,-0.7316 -0.10144,-0.19847 -0.27276,-0.3504 -0.51575,-0.456 -0.21942,-0.0927 -0.45223,-0.14416 -0.69856,-0.15345 -0.24622,-0.009 -0.61974,0.0146 -1.12038,0.0718 -0.67727,0.0773 -1.35512,0.15397 -2.03348,0.22962 z m 0.88427,0.71316 c 0.36092,-0.0428 0.72163,-0.0859 1.08214,-0.12938 0.30246,-0.0365 0.55548,-0.0562 0.75904,-0.0589 0.20372,-0.006 0.37533,0.0249 0.51493,0.0923 0.11882,0.0574 0.20311,0.1408 0.25329,0.25022 0.0502,0.10945 0.0722,0.24881 0.0668,0.41837 -0.007,0.20408 -0.0413,0.38531 -0.10529,0.54421 -0.0606,0.15527 -0.16271,0.28997 -0.30626,0.40404 -0.14356,0.11406 -0.29847,0.19868 -0.4652,0.25343 -0.16657,0.0516 -0.39083,0.0971 -0.67232,0.13578 -0.3876,0.0533 -0.77552,0.10572 -1.16376,0.15734 0.003,-0.68724 0.0155,-1.37637 0.0367,-2.06737 z m -7.2718,0.7987 c 0.28611,-0.028 0.57214,-0.0564 0.8581,-0.0852 0.42438,-0.0428 0.78845,-0.0474 1.09232,-0.0136 0.30389,0.0305 0.59023,0.1133 0.85914,0.24782 0.36979,0.18584 0.64609,0.46348 0.83151,0.83344 0.18544,0.36995 0.27837,0.83866 0.28276,1.407 0.004,0.56497 -0.0737,1.04546 -0.23728,1.44292 -0.16059,0.39698 -0.40657,0.7322 -0.7399,1.00475 -0.26725,0.21875 -0.56345,0.38228 -0.88891,0.48971 -0.32229,0.10705 -0.70247,0.18591 -1.14002,0.23495 -0.28462,0.0319 -0.56936,0.063 -0.85422,0.0932 -0.0348,-1.8756 -0.0559,-3.76057 -0.0635,-5.65492 z m -32.888375,0.68153 c -0.302613,-0.0443 -0.597051,-0.027 -0.883644,0.0523 -0.286571,0.0792 -0.564042,0.20703 -0.832313,0.38379 -6.63e-4,-0.18781 -0.0012,-0.37554 -0.0017,-0.5632 -0.286969,-0.0475 -0.573805,-0.0964 -0.860502,-0.14663 -3.47e-4,1.69176 0.01107,3.39002 0.03424,5.0948 0.286866,0.0483 0.573879,0.0955 0.861032,0.14176 -0.01405,-1.27142 -0.02407,-2.53938 -0.03006,-3.80389 0.234932,-0.1402 0.480717,-0.24755 0.737248,-0.32238 0.256538,-0.0749 0.502645,-0.0948 0.738459,-0.0597 0.229732,0.0342 0.416804,0.093 0.561403,0.17715 0.144545,0.0812 0.255725,0.19055 0.333502,0.32855 0.0746,0.12544 0.126628,0.29313 0.155967,0.50319 0.02931,0.20702 0.0449,0.42738 0.04668,0.66112 0.0073,0.96529 0.01308,1.93228 0.01724,2.90098 0.287928,0.0402 0.575979,0.0795 0.864145,0.11772 -0.0025,-1.10475 -0.0087,-2.20742 -0.01839,-3.30803 -0.0055,-0.62256 -0.156789,-1.11699 -0.451419,-1.48586 -0.294769,-0.36904 -0.718582,-0.59076 -1.271863,-0.67169 0,0 -8e-6,3e-5 -8e-6,3e-5 z m 11.390955,1.00797 c -0.751854,-0.0268 -1.350617,0.19498 -1.801446,0.66799 -0.448027,0.47346 -0.665202,1.12879 -0.658117,1.97557 0.0072,0.85541 0.246184,1.53442 0.724972,2.0351 0.478217,0.49697 1.144732,0.77543 2.00221,0.82188 0.336274,0.0182 0.657684,-0.008 0.964108,-0.0782 0.306413,-0.0704 0.606876,-0.16283 0.901161,-0.27731 0.0026,-0.32199 0.0041,-0.64398 0.0043,-0.96596 -0.01544,-5.3e-4 -0.03089,-0.001 -0.04633,-0.002 -0.151249,0.13278 -0.406486,0.26498 -0.765002,0.39379 -0.355529,0.12587 -0.709386,0.17931 -1.061133,0.16118 -0.26537,-0.0137 -0.508941,-0.0645 -0.730719,-0.15185 -0.218713,-0.0871 -0.408023,-0.2104 -0.568142,-0.36916 -0.166309,-0.16222 -0.297287,-0.36428 -0.393452,-0.60585 -0.09619,-0.2447 -0.145211,-0.52651 -0.147797,-0.84568 1.269421,0.0758 2.539386,0.13175 3.809392,0.16877 -0.0014,-0.16027 -0.0031,-0.32054 -0.0051,-0.48081 -0.0095,-0.76383 -0.213083,-1.35735 -0.602833,-1.78043 -0.387182,-0.42358 -0.929752,-0.6425 -1.626106,-0.66734 0,0 3.2e-5,-4e-5 3.2e-5,-4e-5 z m 11.13938,-0.078 c -0.75279,0.0342 -1.35217,0.31824 -1.80215,0.85266 -0.44706,0.53452 -0.66179,1.23914 -0.65246,2.12121 0.009,0.89113 0.24956,1.57601 0.73013,2.05407 0.47997,0.47426 1.14874,0.70435 2.00716,0.67775 0.33655,-0.0104 0.6578,-0.0653 0.9635,-0.16479 0.30567,-0.0994 0.60497,-0.22094 0.89773,-0.36456 -4.4e-4,-0.33344 -0.002,-0.66704 -0.004,-1.00081 -0.0154,7.5e-4 -0.0308,0.001 -0.0462,0.002 -0.14997,0.15033 -0.40366,0.30889 -0.76064,0.47305 -0.35403,0.16085 -0.70713,0.24677 -1.05872,0.25836 -0.26523,0.009 -0.50894,-0.0228 -0.73103,-0.0943 -0.21901,-0.0714 -0.40875,-0.18304 -0.56937,-0.33411 -0.1668,-0.15414 -0.29836,-0.35281 -0.39517,-0.59584 -0.0969,-0.24626 -0.14661,-0.53546 -0.15006,-0.86791 1.2683,-0.0322 2.53568,-0.0815 3.80162,-0.1468 -0.002,-0.16633 -0.004,-0.3327 -0.006,-0.4991 -0.0107,-0.79301 -0.21201,-1.39514 -0.60016,-1.80561 -0.38552,-0.41109 -0.92734,-0.59714 -1.62447,-0.56545 0,0 2e-5,-4e-5 2e-5,-4e-5 z m -8.19893,0.29382 c 0.695564,0.89497 1.373264,1.77953 2.051788,2.67805 -0.665495,0.8815 -1.33547,1.74437 -2.019497,2.60199 0.338098,0.0111 0.676231,0.0209 1.014392,0.0294 0.500228,-0.66697 0.992888,-1.33766 1.481995,-2.01778 0.49431,0.6874 0.979539,1.36986 1.464612,2.0585 0.36603,9.5e-4 0.73206,3.8e-4 1.09807,-0.002 -0.67495,-0.91054 -1.345067,-1.80531 -2.035723,-2.71428 0.66974,-0.87904 1.325123,-1.7632 1.978423,-2.66635 -0.33931,0.008 -0.67864,0.0154 -1.01797,0.0212 -0.468236,0.6853 -0.939044,1.36113 -1.417126,2.03325 -0.497126,-0.67374 -0.995599,-1.34173 -1.502572,-2.01333 -0.365495,-0.001 -0.730962,-0.004 -1.096392,-0.009 z m -2.967345,0.50662 c 0.462459,0.018 0.809286,0.15498 1.040086,0.41566 0.233666,0.26051 0.35667,0.62267 0.366116,1.08639 -0.987398,-0.0328 -1.974691,-0.0773 -2.961644,-0.13392 0.03176,-0.40687 0.181421,-0.74013 0.450211,-1.00256 0.271816,-0.26224 0.639694,-0.38366 1.105231,-0.36557 z m 11.138875,-0.0428 c 0.46232,-0.0198 0.80869,0.0951 1.03894,0.34824 0.23313,0.25276 0.35556,0.62027 0.36561,1.10221 -0.98486,0.0469 -1.9705,0.0843 -2.95668,0.11156 0.0308,-0.42732 0.17941,-0.78863 0.44765,-1.08609 0.27128,-0.29754 0.63905,-0.45595 1.10448,-0.47592 z m -17.04519,-0.26099 c 0.218359,0.02 0.420165,0.0577 0.605483,0.11335 0.185296,0.0557 0.395872,0.14517 0.631644,0.26832 0.01718,0.98234 0.02615,1.96566 0.02692,2.94997 -0.218619,0.15247 -0.45438,0.27188 -0.70697,0.358 -0.252601,0.0831 -0.502014,0.1118 -0.748188,0.0865 -0.461523,-0.0474 -0.796684,-0.24192 -1.006436,-0.57937 -0.209923,-0.34075 -0.316039,-0.81469 -0.32065,-1.42136 -0.0047,-0.61591 0.125021,-1.07571 0.391147,-1.38291 0.266063,-0.30713 0.641141,-0.43706 1.127049,-0.39252 0,0 0,-2e-5 0,-2e-5 z m 22.66511,0.008 c 0.21819,-0.0166 0.41974,-0.0108 0.60469,0.0173 0.18495,0.0282 0.39489,0.0887 0.62974,0.18131 0.0151,1.05444 0.0287,2.10654 0.0408,3.15631 -0.21582,0.20111 -0.44918,0.37026 -0.70005,0.50722 -0.25089,0.1337 -0.49953,0.20915 -0.74561,0.2265 -0.46143,0.0326 -0.79808,-0.11437 -1.00981,-0.43753 -0.2119,-0.32667 -0.32047,-0.81524 -0.32835,-1.46653 -0.008,-0.66122 0.11901,-1.18091 0.38357,-1.56048 0.26456,-0.37955 0.6393,-0.5872 1.12497,-0.6241 0,0 0,-2e-5 0,-2e-5 z m 12.00088,-0.0474 c 0.47099,-0.0652 0.94149,-0.13195 1.41147,-0.20007 0.29621,-0.0429 0.54688,-0.0672 0.75226,-0.0727 0.20835,-0.009 0.38502,0.0146 0.53018,0.0704 0.21475,0.0828 0.36348,0.19956 0.44698,0.35105 0.0835,0.15155 0.1278,0.36612 0.13509,0.64438 0.006,0.24423 -0.0258,0.44982 -0.0985,0.61776 -0.0727,0.16786 -0.19055,0.32679 -0.3544,0.47679 -0.15516,0.13911 -0.35721,0.25239 -0.60642,0.33886 -0.24912,0.0833 -0.57129,0.15847 -0.96522,0.22333 -0.3972,0.0654 -0.79475,0.12922 -1.19262,0.19146 -0.0345,-0.87732 -0.0541,-1.75775 -0.0589,-2.6413 z"
       id="text897"
       inkscape:path-effect="#path-effect904"
       inkscape:original-d="m 88.644331,179.58738 v 2.22941 c -0.230305,-0.11977 -0.449872,-0.20729 -0.658679,-0.26256 -0.208817,-0.0582 -0.448339,-0.0876 -0.718563,-0.0876 -0.29787,0 -0.586524,0.0614 -0.865963,0.18424 -0.276371,0.12284 -0.518962,0.30095 -0.727777,0.53433 -0.211884,0.23953 -0.380776,0.52971 -0.506679,0.87057 -0.122829,0.34086 -0.184253,0.72931 -0.184253,1.16538 0,0.83832 0.179646,1.49394 0.53893,1.96684 0.36235,0.47291 0.850605,0.70936 1.464763,0.70936 0.316286,0 0.60955,-0.0599 0.87978,-0.17964 0.270229,-0.11977 0.529711,-0.28713 0.778441,-0.50208 v 0.53892 h 0.865967 v -7.16724 z m 22.588779,0 v 2.22941 c -0.23031,-0.11977 -0.44987,-0.20729 -0.65868,-0.26256 -0.20883,-0.0582 -0.44835,-0.0876 -0.71857,-0.0876 -0.29788,0 -0.58653,0.0614 -0.86598,0.18424 -0.27636,0.12284 -0.51894,0.30095 -0.72778,0.53433 -0.21187,0.23953 -0.38077,0.52971 -0.50668,0.87057 -0.12282,0.34086 -0.18424,0.72931 -0.18424,1.16538 0,0.83832 0.17964,1.49394 0.53892,1.96684 0.36236,0.47291 0.85062,0.70936 1.46478,0.70936 0.31629,0 0.60954,-0.0599 0.87979,-0.17964 0.27023,-0.11977 0.52971,-0.28713 0.77844,-0.50208 v 0.53892 h 0.86596 v -7.16724 z M 75.166605,179.896 v 0.70014 h 0.898209 v 5.45836 h -0.898209 v 0.70013 h 2.708445 v -0.70013 h -0.898208 v -5.45836 H 77.87505 V 179.896 Z m 38.705855,0 v 6.85863 h 1.73195 c 0.62951,0 1.13619,-0.043 1.52004,-0.12896 0.38692,-0.086 0.73699,-0.22571 1.05021,-0.41917 0.45142,-0.27944 0.81222,-0.6725 1.08246,-1.17918 0.2733,-0.50668 0.40995,-1.07172 0.40995,-1.69509 0,-0.66637 -0.13051,-1.24214 -0.39152,-1.72732 -0.26102,-0.4852 -0.62491,-0.87365 -1.09168,-1.16538 -0.27331,-0.16889 -0.60801,-0.30094 -1.00415,-0.39613 -0.39306,-0.0983 -0.92431,-0.1474 -1.59374,-0.1474 z m 7.27781,0 v 6.85863 h 2.43208 c 0.47598,0 0.86749,-0.043 1.17458,-0.12896 0.31015,-0.086 0.59419,-0.23032 0.85214,-0.43299 0.21802,-0.16889 0.39153,-0.38385 0.52049,-0.64486 0.12899,-0.26103 0.19347,-0.56197 0.19347,-0.90283 0,-0.47597 -0.13357,-0.86904 -0.40074,-1.17918 -0.26716,-0.31322 -0.63259,-0.51743 -1.09627,-0.61263 v -0.0369 c 0.27637,-0.13818 0.49746,-0.3209 0.66329,-0.54813 0.16582,-0.2303 0.24873,-0.50822 0.24873,-0.83373 0,-0.28865 -0.0568,-0.53584 -0.17042,-0.7416 -0.11362,-0.2088 -0.29634,-0.37924 -0.54814,-0.51128 -0.22724,-0.11669 -0.46522,-0.19346 -0.71397,-0.23031 -0.24873,-0.0368 -0.62337,-0.0553 -1.12392,-0.0553 z m 0.91203,0.77844 h 1.08706 c 0.30401,0 0.55888,0.0107 0.76463,0.0322 0.20576,0.0184 0.38078,0.0691 0.52511,0.152 0.12282,0.0706 0.21189,0.16275 0.26716,0.27637 0.0553,0.11362 0.0829,0.25334 0.0829,0.41916 0,0.19961 -0.0306,0.3731 -0.0921,0.52051 -0.0582,0.14432 -0.15969,0.26255 -0.30401,0.35467 -0.14433,0.0921 -0.30094,0.15354 -0.46983,0.18425 -0.16889,0.0277 -0.39614,0.0415 -0.68172,0.0415 h -1.17919 z m -7.2778,0.005 h 0.85675 c 0.42377,0 0.78767,0.0308 1.09167,0.0921 0.30401,0.0583 0.59112,0.1643 0.86136,0.31783 0.37155,0.21189 0.65101,0.50208 0.83832,0.87058 0.18733,0.36849 0.28099,0.82143 0.28099,1.35883 -1e-5,0.53432 -0.0861,0.97958 -0.25794,1.3358 -0.1689,0.35621 -0.42378,0.64333 -0.76464,0.86136 -0.2733,0.17504 -0.57424,0.2948 -0.90282,0.35928 -0.32551,0.0645 -0.70782,0.0967 -1.14694,0.0967 h -0.85675 z m -32.823747,0.78766 c -0.30401,0 -0.600341,0.0629 -0.888997,0.18885 -0.288655,0.1259 -0.568098,0.30094 -0.838329,0.52511 v -0.57117 h -0.865966 v 5.14513 h 0.865966 v -3.84158 c 0.236452,-0.18117 0.48365,-0.3301 0.741597,-0.44679 0.257948,-0.1167 0.505148,-0.17504 0.741601,-0.17504 0.23031,0 0.417629,0.0323 0.561957,0.0967 0.144328,0.0614 0.254877,0.15661 0.331646,0.28558 0.0737,0.11669 0.124367,0.27945 0.152005,0.48827 0.02763,0.20573 0.04147,0.42683 0.04147,0.66328 v 2.92955 h 0.86596 v -3.33949 c 0,-0.62952 -0.14586,-1.11163 -0.437586,-1.44635 -0.291726,-0.33472 -0.715499,-0.50208 -1.271315,-0.50208 z m 11.39109,0 c -0.749267,0 -1.354218,0.2472 -1.814833,0.7416 -0.457548,0.4944 -0.686319,1.1623 -0.686319,2.00369 0,0.85062 0.239522,1.50778 0.71856,1.97146 0.479047,0.46062 1.145404,0.69092 1.999084,0.69092 0.334719,0 0.654081,-0.0414 0.958084,-0.12435 0.304003,-0.0829 0.601877,-0.18578 0.893599,-0.30863 v -0.94422 h -0.04609 c -0.15047,0.1351 -0.403806,0.27329 -0.76002,0.41454 -0.353143,0.13819 -0.704747,0.20729 -1.054814,0.20729 -0.264088,0 -0.506689,-0.0368 -0.727777,-0.11055 -0.218026,-0.0736 -0.406885,-0.18425 -0.566561,-0.33166 -0.165826,-0.15046 -0.29633,-0.34237 -0.391524,-0.57577 -0.0952,-0.23645 -0.142795,-0.51282 -0.142795,-0.82911 h 3.790882 v -0.46984 c 0,-0.74619 -0.188846,-1.32197 -0.566555,-1.72732 -0.374638,-0.40535 -0.908958,-0.60801 -1.602955,-0.60801 z m 11.091727,0 c -0.74927,0 -1.35422,0.2472 -1.81484,0.7416 -0.45756,0.4944 -0.68632,1.1623 -0.68632,2.00369 0,0.85062 0.23951,1.50778 0.71856,1.97146 0.47905,0.46062 1.1454,0.69092 1.99909,0.69092 0.33472,0 0.65408,-0.0414 0.9581,-0.12435 0.304,-0.0829 0.60187,-0.18578 0.8936,-0.30863 v -0.94422 h -0.0461 c -0.15047,0.1351 -0.40382,0.27329 -0.76003,0.41454 -0.35314,0.13819 -0.70474,0.20729 -1.05482,0.20729 -0.26408,0 -0.50668,-0.0368 -0.72778,-0.11055 -0.21802,-0.0736 -0.40688,-0.18425 -0.56656,-0.33166 -0.16581,-0.15046 -0.29633,-0.34237 -0.39152,-0.57577 -0.0952,-0.23645 -0.14279,-0.51282 -0.14279,-0.82911 h 3.79089 v -0.46984 c 0,-0.74619 -0.18886,-1.32197 -0.56655,-1.72732 -0.37464,-0.40535 -0.90895,-0.60801 -1.60295,-0.60801 z m -8.166787,0.14279 1.989864,2.57947 -2.008301,2.56566 h 1.008756 l 1.469392,-1.97607 1.460156,1.97607 h 1.09166 l -2.022106,-2.61172 2.022106,-2.53341 h -1.01335 l -1.455557,1.94382 -1.450956,-1.94382 z m -2.970994,0.57117 c 0.460614,0 0.803006,0.12437 1.027171,0.3731 0.227241,0.24872 0.342396,0.60035 0.345462,1.05482 H 91.73047 c 0.03681,-0.40534 0.191924,-0.74466 0.465222,-1.01796 0.276371,-0.27331 0.646407,-0.40996 1.110097,-0.40996 z m 11.091711,0 c 0.46061,0 0.80301,0.12437 1.02719,0.3731 0.22724,0.24872 0.3424,0.60035 0.34546,1.05482 h -2.94796 c 0.0369,-0.40534 0.19192,-0.74466 0.46523,-1.01796 0.27637,-0.27331 0.64639,-0.40996 1.11008,-0.40996 z m -16.983016,0.0783 c 0.218026,0 0.419166,0.02 0.603408,0.0599 0.18425,0.0399 0.393058,0.11208 0.626439,0.21649 v 2.95258 c -0.218023,0.17196 -0.45294,0.31322 -0.704745,0.42376 -0.251807,0.10748 -0.500537,0.16122 -0.746203,0.16122 -0.460613,0 -0.795332,-0.15814 -1.004139,-0.47444 -0.208818,-0.31937 -0.313222,-0.78458 -0.313222,-1.39568 0,-0.6203 0.135112,-1.09934 0.405341,-1.43713 0.270232,-0.33779 0.647941,-0.50668 1.133121,-0.50668 z m 22.588766,0 c 0.21803,0 0.41917,0.02 0.60342,0.0599 0.18425,0.0399 0.39307,0.11208 0.62644,0.21649 v 2.95258 c -0.21802,0.17196 -0.45293,0.31322 -0.70475,0.42376 -0.2518,0.10748 -0.50054,0.16122 -0.74621,0.16122 -0.46061,0 -0.79533,-0.15814 -1.00414,-0.47444 -0.20881,-0.31937 -0.31322,-0.78458 -0.31322,-1.39568 0,-0.6203 0.13511,-1.09934 0.40534,-1.43713 0.27024,-0.33779 0.64794,-0.50668 1.13312,-0.50668 z m 12.05905,1.16537 h 1.43253 c 0.30094,0 0.55581,0.0123 0.76463,0.0368 0.21188,0.0214 0.39153,0.0707 0.53892,0.1474 0.21803,0.11362 0.3685,0.2518 0.4514,0.41457 0.0829,0.16274 0.12438,0.38231 0.12438,0.65868 0,0.24259 -0.0399,0.44066 -0.11977,0.5942 -0.0799,0.15354 -0.20574,0.29019 -0.37771,0.40995 -0.16275,0.11055 -0.37156,0.18732 -0.62644,0.23031 -0.25487,0.0399 -0.58192,0.0599 -0.98113,0.0599 h -1.20681 z"
       inkscape:connector-curvature="0" />
    <path
       style="font-style:normal;font-weight:normal;font-size:10.58333302px;line-height:1.25;font-family:sans-serif;letter-spacing:0px;word-spacing:0px;fill:#c71212;fill-opacity:1;stroke:#ff5b5b;stroke-width:0.84700543;stroke-miterlimit:4;stroke-dasharray:none;stroke-opacity:1"
       d="m 67.415934,199.51821 c 0.02051,4.56546 0.02133,9.12681 0.0024,13.68403 0.115917,0.0249 0.231865,0.0496 0.347842,0.0743 0.0061,-1.55054 0.01001,-3.10155 0.01181,-4.65304 0.189159,-3.16262 1.477394,-4.59325 3.901841,-4.37502 2.145754,0.4016 3.220163,1.86247 3.218127,4.45578 -0.0016,1.97637 -0.0024,3.95193 -0.0026,5.92668 0.117059,0.0196 0.234141,0.0391 0.351246,0.0585 -1.43e-4,-1.9747 5.83e-4,-3.95021 0.0022,-5.92653 0.0022,-2.78262 -1.189389,-4.37531 -3.569034,-4.86768 -1.865654,-0.25477 -3.159926,0.55672 -3.900684,2.47107 -3.82e-4,-2.25739 -0.0053,-4.5158 -0.01468,-6.77522 -0.116208,-0.0242 -0.232387,-0.0484 -0.348536,-0.0728 z m 35.232886,3.74353 c -0.0372,4.51906 -0.0526,9.03954 -0.0462,13.56144 0.0949,-0.001 0.18982,-0.002 0.28472,-0.004 -0.002,-1.14198 -0.002,-2.28387 -4.7e-4,-3.42565 0.99634,-0.82781 1.99548,-1.66667 2.99295,-2.51372 1.49462,1.93825 2.97107,3.82466 4.46389,5.71438 -2e-4,1.6e-4 0.28394,-0.22859 0.28375,-0.22843 -1.51616,-1.90856 -3.01539,-3.81369 -4.53344,-5.77231 1.40049,-1.23364 2.80664,-2.49121 4.20533,-3.76465 1.4e-4,1.2e-4 -0.21218,-0.19585 -0.21204,-0.19572 -2.38889,2.16367 -4.81089,4.29137 -7.19993,6.341 0.004,-3.23911 0.0198,-6.47744 0.0462,-9.71498 -0.0949,8.6e-4 -0.18984,0.002 -0.28477,0.002 z m 29.45333,-3.62373 c 0.0379,2.17585 0.0583,4.35611 0.061,6.54076 -0.74361,-1.7952 -2.02593,-2.48616 -3.83588,-2.14836 -2.60299,0.74025 -3.97332,2.67576 -4.12663,5.97614 0.034,3.24664 1.41577,4.70655 4.15706,4.1967 1.85567,-0.47045 3.12342,-1.70642 3.78742,-3.64913 -0.009,0.91861 -0.0205,1.838 -0.0354,2.75816 0.11549,-0.0271 0.23095,-0.0543 0.34637,-0.0818 0.0755,-4.57956 0.0725,-9.13967 -0.009,-13.68034 -0.11491,0.0295 -0.22986,0.0588 -0.34485,0.0878 z m -49.163331,5.99007 c -2.878817,-0.0636 -4.45474,1.4211 -4.739127,4.58612 0.232005,3.13016 1.808121,5.07795 4.73119,5.70101 2.924543,0.06 4.501621,-1.51585 4.740177,-4.58011 -0.281382,-3.22079 -1.852504,-5.0786 -4.73224,-5.70702 z m 11.92743,0.98671 c -2.895363,0.15216 -4.49332,1.74065 -4.781709,4.91536 0.2328,3.10062 1.828849,4.92492 4.766715,5.32264 2.938295,-0.16287 4.521557,-1.85641 4.763581,-4.92355 -0.279651,-3.18277 -1.854279,-4.9052 -4.748587,-5.31445 z m 22.231361,-0.74705 c -2.87291,0.56785 -4.41523,2.35497 -4.61443,5.54454 0.13198,3.14074 1.68984,4.7243 4.65173,4.56929 2.34922,-0.31719 3.83618,-1.45535 4.45469,-3.31601 -0.11704,-0.0289 -0.23412,-0.058 -0.35122,-0.0872 -0.52418,1.75165 -1.89318,2.82255 -4.10204,3.12373 -2.63306,0.16391 -4.07248,-1.25313 -4.29956,-4.10962 2.97774,-0.24898 5.94735,-0.59622 8.90321,-1.04671 -0.0341,-3.41024 -1.58753,-4.89556 -4.64238,-4.67802 z m -34.160186,0.113 c 2.690319,0.60531 4.14514,2.34021 4.379339,5.3226 -0.238406,2.92497 -1.698007,4.38629 -4.386732,4.25963 -2.686971,-0.54888 -4.146366,-2.35436 -4.378643,-5.29715 0.237244,-2.93616 1.696464,-4.32572 4.386036,-4.28508 z m 11.926768,0.98488 c 2.704289,0.40035 4.162475,2.01032 4.395066,4.95958 -0.241773,2.92855 -1.707201,4.49837 -4.409032,4.57689 -2.700885,-0.34192 -4.177834,-2.03271 -4.410881,-4.94642 0.240711,-2.94288 1.719451,-4.42903 4.424847,-4.59005 z m 22.232868,-0.74917 c 2.72734,-0.27191 4.16187,1.01451 4.29257,4.03316 -2.83977,0.42524 -5.69203,0.75516 -8.5518,0.99428 0.24573,-2.91222 1.66848,-4.53915 4.25923,-5.02744 z m 11.232,-1.83551 c 2.36438,-0.31487 3.65782,0.96065 3.83091,3.98427 -0.151,3.03937 -1.43516,4.93571 -3.79866,5.55642 -2.50956,0.46358 -3.77495,-0.91362 -3.8097,-3.97614 0.15237,-3.06647 1.40625,-4.87439 3.77745,-5.56455 z"
       id="text916"
       inkscape:connector-curvature="0"
       inkscape:path-effect="#path-effect937"
       inkscape:original-d="m 67.483456,199.7321 v 13.68383 h 0.352828 v -4.65527 c 0.188092,-3.19756 1.50489,-4.91374 3.950082,-5.14886 2.163056,0 3.244426,1.29298 3.244426,3.87924 v 5.92489 h 0.352828 v -5.92489 c 0,-2.77436 -1.199084,-4.18504 -3.597254,-4.23206 -1.880915,0.0941 -3.197716,1.17541 -3.950082,3.24442 v -6.7713 z m 35.126124,0 v 13.68383 h 0.28246 v -3.45604 l 2.96243,-2.46885 4.44368,5.99527 0.28197,-0.21161 -4.51404,-6.06565 4.16121,-3.59725 -0.2116,-0.2116 -7.12365,6.13648 v -9.80458 z m 29.55406,0 v 6.55969 c -0.75237,-1.97496 -2.04534,-2.98579 -3.87923,-3.03281 -2.63329,0.18809 -4.02061,1.92809 -4.16168,5.21969 0.0469,3.29161 1.45771,4.96061 4.23205,5.00764 1.88092,-0.0941 3.15055,-1.03436 3.80886,-2.82123 v 2.75085 h 0.35283 V 199.7321 Z m -49.091929,3.52688 c -2.868398,0.28214 -4.443509,2.02213 -4.725648,5.21969 0.235117,3.10352 1.810226,4.79635 4.725648,5.07848 2.915423,-0.28213 4.490531,-1.97496 4.725648,-5.07848 -0.282139,-3.19756 -1.85725,-4.93755 -4.725648,-5.21969 z m 11.849776,0 c -2.868397,0.28214 -4.443508,2.02213 -4.725647,5.21969 0.235116,3.10352 1.810226,4.79635 4.725647,5.07848 2.915428,-0.28213 4.49053,-1.97496 4.725647,-5.07848 -0.282135,-3.19756 -1.857247,-4.93755 -4.725647,-5.21969 z m 22.077103,0 c -2.86839,0.23511 -4.39633,1.95129 -4.58443,5.14885 0.14109,3.19755 1.69284,4.89038 4.65528,5.07848 2.35114,-0.047 3.83238,-0.96397 4.44366,-2.75085 l -0.35282,-0.14075 c -0.51725,1.69282 -1.88076,2.56259 -4.09084,2.60961 -2.63327,-0.14106 -4.06779,-1.66948 -4.30291,-4.58488 h 8.88733 c -0.047,-3.43269 -1.59878,-5.2194 -4.65527,-5.36046 z m -33.926879,0.35282 c 2.680306,0.28214 4.138174,1.90444 4.373288,4.86687 -0.235114,2.96245 -1.692982,4.53756 -4.373288,4.72565 -2.680305,-0.23512 -4.138174,-1.81022 -4.373288,-4.72565 0.235114,-2.96243 1.692983,-4.58473 4.373288,-4.86687 z m 11.849776,0 c 2.680302,0.28214 4.138171,1.90444 4.373288,4.86687 -0.235117,2.96245 -1.692986,4.53756 -4.373288,4.72565 -2.680306,-0.23512 -4.138173,-1.81022 -4.373288,-4.72565 0.235115,-2.96243 1.692982,-4.58473 4.373288,-4.86687 z m 22.077103,0 c 2.72733,0.047 4.16184,1.59878 4.30292,4.65528 h -8.53498 c 0.23512,-2.91543 1.64581,-4.46719 4.23206,-4.65528 z m 11.28582,0 c 2.39817,0.18809 3.69114,1.81039 3.87923,4.86687 -0.14107,3.00946 -1.41068,4.58459 -3.80886,4.72565 -2.53923,-0.0469 -3.83221,-1.62213 -3.87923,-4.72565 0.14107,-3.05648 1.41069,-4.67878 3.80886,-4.86687 z" />
    <path
       style="display:inline;opacity:1;fill:none;fill-opacity:1;stroke:#ff5b5b;stroke-width:0.41317338;stroke-linecap:round;stroke-linejoin:round;stroke-miterlimit:4;stroke-dasharray:none;stroke-dashoffset:0;stroke-opacity:1;paint-order:fill markers stroke"
       d="m 98.156537,232.06368 a 4.4916195,1.8592147 60.229923 0 0 -0.365204,0.10543 4.4916195,1.8592147 60.229923 0 0 -0.383179,2.36064 4.4916195,1.8592147 0.20990599 0 0 -1.899777,1.50644 4.4916195,1.8592147 0.20990599 0 0 1.908797,1.52918 1.8592147,4.4916195 29.770077 0 0 0.374159,2.40201 1.8592147,4.4916195 29.770077 0 0 2.229647,-0.86934 4.4916195,1.8592147 60.229923 0 0 2.22966,0.86934 4.4916195,1.8592147 60.229923 0 0 0.3745,-2.40036 4.4916195,1.8592147 0.20990599 0 0 1.86642,-1.49671 4.4916195,1.8592147 0.20990599 0 0 -1.86339,-1.51471 1.8592147,4.4916195 29.770077 0 0 -0.37753,-2.38649 1.8592147,4.4916195 29.770077 0 0 -2.22966,0.86933 4.4916195,1.8592147 60.229923 0 0 -1.864443,-0.97476 z"
       id="path1548-2"
       inkscape:connector-curvature="0" />
    <path
       style="display:inline;opacity:1;fill:none;fill-opacity:1;stroke:#070000;stroke-width:0.49580809;stroke-linecap:round;stroke-linejoin:round;stroke-miterlimit:4;stroke-dasharray:none;stroke-dashoffset:0;stroke-opacity:1;paint-order:fill markers stroke"
       d="m 99.976361,158.97657 a 8.3232266,1.1764896 0.06060851 0 0 -1.889425,0.0297 1.8132949,5.400219 69.613179 0 0 -1.078886,0.57291 1.8132949,5.400219 69.613179 0 0 -0.866162,0.58333 5.400219,1.8132949 20.386821 0 0 0.866162,0.58336 5.400219,1.8132949 20.386821 0 0 1.028675,0.54848 8.3232266,1.1764896 0.06060851 0 0 1.908949,0.0351 8.3232266,1.1764896 0.06060851 0 0 2.014116,-0.0335 1.8132949,5.400219 69.613179 0 0 1.03208,-0.55014 1.8132949,5.400219 69.613179 0 0 0.86616,-0.58333 5.400219,1.8132949 20.386821 0 0 -0.86616,-0.58334 5.400219,1.8132949 20.386821 0 0 -1.06445,-0.56589 8.3232266,1.1764896 0.06060851 0 0 -1.951059,-0.0368 z"
       id="path1548-8"
       inkscape:connector-curvature="0" />
  </g>
</svg>
